<?xml version="1.0" standalone="no"?>

<svg viewBox="0 0 448 448" style="background-color:#e4e4e4" version="1.1" xmlns="http://www.w3.org/2000/svg" xmlns:xlink="http://www.w3.org/1999/xlink" xml:space="preserve" x="0px" y="0px" width="100%" height="100%">
	<g id="Layer%201">
		<g>
			<g>
				<g>
					<path d="M 165.8 108.1 C 165.8 104.3 167.2 102.9 170.9 102.9 L 215.1 102.9 C 218.8 102.9 220.3 104.3 220.3 108.1 L 220.3 343.8 C 220.3 347.6 218.8 349 215.1 349 L 170.9 349 C 167.2 349 165.8 347.6 165.8 343.8 L 165.8 108.1 Z" fill="#ff9c22"/>
					<path d="M 177.9 132.9 C 177.9 132.4 178.3 132 178.8 132 L 209.7 132 C 210.2 132 210.6 132.4 210.6 132.9 L 210.6 134.7 C 210.6 135.2 210.2 135.6 209.7 135.6 L 178.8 135.6 C 178.3 135.6 177.9 135.2 177.9 134.7 L 177.9 132.9 Z" fill="#ffffff"/>
					<path d="M 177.9 149.9 C 177.9 149.4 178.3 149 178.8 149 L 209.7 149 C 210.2 149 210.6 149.4 210.6 149.9 L 210.6 151.7 C 210.6 152.2 210.2 152.6 209.7 152.6 L 178.8 152.6 C 178.3 152.6 177.9 152.2 177.9 151.7 L 177.9 149.9 Z" fill="#ffffff"/>
					<path d="M 227.5 108.1 C 227.5 104.3 228.9 102.9 232.7 102.9 L 276.9 102.9 C 280.6 102.9 282 104.3 282 108.1 L 282 343.8 C 282 347.6 280.6 349 276.9 349 L 232.7 349 C 228.9 349 227.5 347.6 227.5 343.8 L 227.5 108.1 Z" fill="#ff5722"/>
					<path d="M 239.6 132.9 C 239.6 132.4 240 132 240.5 132 L 271.4 132 C 271.9 132 272.3 132.4 272.3 132.9 L 272.3 134.7 C 272.3 135.2 271.9 135.6 271.4 135.6 L 240.5 135.6 C 240 135.6 239.6 135.2 239.6 134.7 L 239.6 132.9 Z" fill="#ffffff"/>
					<path d="M 239.6 149.9 C 239.6 149.4 240 149 240.5 149 L 271.4 149 C 271.9 149 272.3 149.4 272.3 149.9 L 272.3 151.7 C 272.3 152.2 271.9 152.6 271.4 152.6 L 240.5 152.6 C 240 152.6 239.6 152.2 239.6 151.7 L 239.6 149.9 Z" fill="#ffffff"/>
					<path d="M 113.8 102.9 C 114.8 99.4 116.5 98.4 120.1 99.3 L 162.3 110.1 C 165.9 111 166.8 112.7 165.9 116.3 L 105.6 343.9 C 104.6 347.6 102.9 348.7 99.2 347.7 L 56 336.9 C 52.4 336 51.4 334.3 52.4 330.6 L 113.8 102.9 Z" fill="#1d71a3"/>
					<path d="M 116.2 128.1 C 116.3 127.6 116.8 127.2 117.3 127.4 L 148.1 134.2 C 148.6 134.3 148.9 134.8 148.8 135.4 L 148.4 137.2 C 148.3 137.8 147.8 138.1 147.3 138 L 116.6 131.1 C 116.1 131 115.8 130.5 115.9 130 L 116.2 128.1 Z" fill="#ffffff"/>
					<path d="M 113.2 145.1 C 113.3 144.6 113.7 144.3 114.2 144.4 L 144.1 151.3 C 144.6 151.4 144.9 151.9 144.8 152.4 L 144.4 154.2 C 144.3 154.6 143.8 154.9 143.3 154.8 L 113.6 148 C 113.1 147.9 112.8 147.4 112.9 146.9 L 113.2 145.1 Z" fill="#ffffff"/>
					<path d="M 334.4 102.9 C 333.5 99.4 331.7 98.4 328.2 99.3 L 286 110.1 C 282.4 111 281.4 112.7 282.3 116.3 L 342.6 343.9 C 343.6 347.6 345.4 348.7 349 347.7 L 392.2 336.9 C 395.9 336 396.9 334.3 395.9 330.6 L 334.4 102.9 Z" fill="#18b364"/>
					<path d="M 332.1 128.1 C 332 127.6 331.5 127.2 331 127.4 L 300.1 134.2 C 299.6 134.3 299.3 134.8 299.4 135.4 L 299.9 137.2 C 300 137.8 300.5 138.1 301 138 L 331.7 131.1 C 332.1 131 332.5 130.5 332.4 130 L 332.1 128.1 Z" fill="#ffffff"/>
					<path d="M 335.1 145.1 C 335 144.6 334.5 144.3 334 144.4 L 304.1 151.3 C 303.6 151.4 303.3 151.9 303.4 152.4 L 303.8 154.2 C 303.9 154.6 304.4 154.9 304.9 154.8 L 334.7 148 C 335.1 147.9 335.4 147.4 335.4 146.9 L 335.1 145.1 Z" fill="#ffffff"/>
				</g>
			</g>
		</g>
	</g>
</svg>