<?xml version="1.0" standalone="no"?>

<svg viewBox="0 0 448 448" style="background-color:#e4e4e4" version="1.1" xmlns="http://www.w3.org/2000/svg" xmlns:xlink="http://www.w3.org/1999/xlink" xml:space="preserve" x="0px" y="0px" width="100%" height="100%">
	<g id="Layer%201">
		<g>
			<path d="M 376.9 252.6 C 360.3 281.8 248.7 360.7 216.2 341.9 C 208.1 337.2 202.2 309.8 199.5 299.5 C 192.7 258.5 196.2 188.9 214 158.1 C 240.1 112.9 291.7 127.8 327.1 148.3 C 354.4 164.2 404.5 204 376.9 252.6 Z" fill="#d93602"/>
			<path d="M 315.4 216.4 C 306.9 249.1 219.4 353.8 183.4 344.1 C 174.4 341.6 161.6 316.7 156.3 307.5 C 139.3 269.9 124.6 202 133.7 167.7 C 147.1 117.2 200.7 118 240.2 128.6 C 270.8 136.7 329.7 162.1 315.4 216.4 Z" fill="#3b85b0"/>
			<path d="M 239.1 190.2 C 247.8 222.8 224.1 357 188.1 366.7 C 179.1 369.2 155.7 354.1 146.6 348.9 C 113 324.9 66.3 273.6 57.1 239.2 C 43.4 188.6 90.5 162.4 130.1 151.7 C 160.7 143.5 224.4 136 239.1 190.2 Z" fill="#ff9c22"/>
		</g>
	</g>
</svg>