<?xml version="1.0" encoding="utf-8"?>
<!-- Generator: Adobe Illustrator 19.2.0, SVG Export Plug-In . SVG Version: 6.00 Build 0)  -->
<svg version="1.1" id="mne-icon.fw-Page_x25_201" xmlns="http://www.w3.org/2000/svg" xmlns:xlink="http://www.w3.org/1999/xlink"
	 x="0px" y="0px" viewBox="0 0 58 56" style="enable-background:new 0 0 58 56;" xml:space="preserve">
<style type="text/css">
	.st0{fill:none;}
</style>
<path class="st0" d="z"/>
<path class="st0" d="z"/>
<g>
	<path d="M25.6,26.4c0-3.2-5.1-4.5-9.1-4.5c-5.9,0-8.5,0.6-8.5,6.6c0,3.4,1.1,8.1,7.3,8.1c2.7,0,6-0.4,8.5-4.1
		C24.7,31.1,25.6,28.5,25.6,26.4z M41.4,22c-4.9,0-8.9,1.1-8.9,4.4c0,1.2,0.4,3.7,1.4,5.6c1.7,3.3,4.5,4.7,8.5,4.7
		c6.2,0,7.5-3.2,7.5-9.5C49.9,23.3,47.7,22,41.4,22z M16.6,21c5.2,0,9.5,1.8,12.4,1.8c3.2,0,6.8-1.8,13.4-1.8
		c2.4,0,7.9,0.8,10.3,1.1c0.3,0,0.4,0.1,0.4,0.5c0,0.8,0,1.6,0,2.4c0,0.3-0.1,0.4-0.3,0.4c-0.7,0-1.1,0.8-1.3,1.6
		c-0.2,1.5-0.5,3-0.9,4.4c-1.1,4.4-3.7,5.9-8.4,5.9c-6.1,0-8.5-2.5-10.6-8.2c-0.6-1.5-0.6-3.1-2.6-3.1c-1.4,0-2,1.5-2.6,3.1
		c-1.6,4.2-3.7,8.2-10.8,8.2c-2.6,0-6.3-1-7.6-4.1c-0.6-1.5-1.3-5.3-1.5-6.5c-0.1-0.7-0.5-1.2-1.2-1.4c-0.3,0-0.3-0.3-0.3-0.5
		c0-0.7,0-1.8,0-2.2c0-0.5,0.1-0.6,0.7-0.7C6.6,21.9,12.7,21,16.6,21z"/>
</g>
</svg>
