<?xml version="1.0" encoding="utf-8"?>
<!-- Generator: Adobe Illustrator 16.0.0, SVG Export Plug-In . SVG Version: 6.00 Build 0)  -->
<!DOCTYPE svg PUBLIC "-//W3C//DTD SVG 1.1//EN" "http://www.w3.org/Graphics/SVG/1.1/DTD/svg11.dtd">
<svg version="1.1" id="Layer_1" xmlns="http://www.w3.org/2000/svg" xmlns:xlink="http://www.w3.org/1999/xlink" x="0px" y="0px"
	 width="400px" height="400px" viewBox="-2.75 0 400 400" enable-background="new -2.75 0 400 400" xml:space="preserve">
<g id="Untitled-1" image-rendering="optimizeSpeed">
	<rect fill="#D6D6D6" width="397.25" height="400"/>
</g>
<g>
	
		<linearGradient id="path_1_" gradientUnits="userSpaceOnUse" x1="1395.541" y1="-235.6689" x2="1274.4171" y2="-375.9176" gradientTransform="matrix(1 0 0 -1 -1163.8799 -92.4805)">
		<stop  offset="0" style="stop-color:#9C0000"/>
		<stop  offset="0.7647" style="stop-color:#FF1010"/>
		<stop  offset="1" style="stop-color:#A50400"/>
	</linearGradient>
	<path id="path" fill="url(#path_1_)" d="M346.99,166.751c-1.799-3.45-3.049-6.5-3.75-9.15c-5.947-10.35-13.049-20.9-20.947-31.85
		c-24.102-29.75-48.852-45.7-74.201-48.05c-3.351-0.4-6.398-0.7-9.299-0.7c-8.451-0.15-15.802,1.8-22,5.7
		c-11.951,4.85-21.352,12.45-28.401,22.85c-23.7-13.6-45.3-21.5-64.7-23.7c-10.8-1.5-19.25-1.4-25.5,0.3
		c-21.5,4.6-34.25,16.05-38.15,34.2c-0.15,0.6-0.3,1.2-0.4,1.85l-0.3,1.95c-1.05,6.75-1,14.3,0.25,22.65
		c0.267,5.433,1.55,11.25,3.85,17.45c0.4,0.95,0.95,1.95,1.55,2.9c0.1,0.7,0.4,1.65,0.8,2.65c1.8,3.6,4.15,7.6,7.2,11.9
		c16.2,25.05,41,46.101,74.25,63.149c19.95,9.852,40.3,18.852,61.1,27.15c10.9,4.449,22.15,8.6,33.353,12.6
		c0.3,0.15,0.55,0.15,0.7,0.301c0.8,0.25,1.6,0.5,2.25,0.75l54.697,16.949c-0.447-0.799-0.447-1.25,0-1.25
		c7.451-11.75,15.352-23.1,23.553-33.799c7.75-13.25,15.35-26.301,22.947-39.051C354.041,206.351,354.441,187.102,346.99,166.751z"
		/>
	
		<linearGradient id="path1_1_" gradientUnits="userSpaceOnUse" x1="1449.1016" y1="-190.0869" x2="1433.5771" y2="-217.711" gradientTransform="matrix(1 0 0 -1 -1163.8799 -92.4805)">
		<stop  offset="0" style="stop-color:#FF1010"/>
		<stop  offset="1" style="stop-color:#9C0000"/>
	</linearGradient>
	<path id="path1" fill="url(#path1_1_)" d="M316.891,131.602c-7.602-12.35-17.301-22.45-29.352-30.35
		c-12.05-7.9-21.999-12.75-29.648-14.55c-7.75-1.8-12.449-2.65-13.949-2.5c-16.801-0.25-32,5-45.851,15.95
		c3.15-0.7,6.65-0.85,10.5-0.7c36.15,12.05,68.701,29.1,97.5,51.1l0.551-1.95l24.102,20.5c-0.398-0.7-0.947-1.35-1.352-2.05
		c-8.6-13.45-10.949-19.55-7.1-18.6C326.342,149.451,324.543,143.9,316.891,131.602z"/>
	<path id="path7" fill="#C60808" d="M299.342,298.601l-54.699-16.949c-0.649-0.25-1.449-0.5-2.25-0.75
		c-0.149-0.15-0.399-0.15-0.699-0.301c-11.2-4-22.45-8.148-33.352-12.6c-20.798-8.301-41.148-17.301-61.101-27.15
		c-33.25-17.049-58.05-38.1-74.25-63.149c-3.05-4.3-5.4-8.3-7.2-11.9c-0.4-1-0.7-1.95-0.8-2.65c-0.6-0.95-1.15-1.95-1.55-2.9
		c-2.3-6.2-3.583-12.017-3.85-17.45c-1.25-8.35-1.3-15.9-0.25-22.65l0.3-1.95c0.1-0.65,0.25-1.25,0.4-1.85
		c-17.6,48.65-13.85,88.45,11.3,119.5c3,3.75,6.2,7.353,9.25,10.399l14.15-13.399l2.5-1.55c18.7,9.55,37.25,19.25,55.95,28.949l0,0
		l-2.65,17.2l-8.8,8.199c13.8,5.5,28.5,9.85,44.4,13.25C237.543,309.851,275.241,309.702,299.342,298.601z"/>
	<path id="path8" fill="#999999" d="M191.991,272.601c-6.25-2.398-12.5-4.85-18.45-7.5l-1.8,1.102l-2.05,19.25l23.8-13.15
		C192.691,272.452,192.141,272.601,191.991,272.601z"/>
	
		<linearGradient id="path9_1_" gradientUnits="userSpaceOnUse" x1="1333.1328" y1="-379.6064" x2="1398.5078" y2="-379.6064" gradientTransform="matrix(1 0 0 -1 -1163.8799 -92.4805)">
		<stop  offset="0" style="stop-color:#FFFFFF"/>
		<stop  offset="0.4549" style="stop-color:#ACACAC"/>
		<stop  offset="1" style="stop-color:#FFFFFF"/>
	</linearGradient>
	<path id="path9" fill="url(#path9_1_)" d="M195.292,273.151c-0.551-0.301-1.101-0.551-1.801-0.85l-23.8,13.148
		c27.3,9.852,48.199,15.398,62.449,16.5l3.051-16.898c-3.602-0.801-7.051-1.65-10.75-2.551l-5.602,4.6
		c-0.55,0.451-1.25,0.701-1.949,0.701c-0.649,0-1.101-0.25-1.5-0.701c-0.399-0.549-0.551-1.1-0.399-1.799
		c0.101-0.65,0.552-1.352,1.101-1.801l2.951-2.449c-2.552-0.75-5.102-1.5-7.552-2.25l-4.851,4.049c-0.551,0.4-1.101,0.65-1.801,0.65
		c-0.648,0-1.25-0.25-1.648-0.65c-0.398-0.6-0.551-1.148-0.398-1.799c0.148-0.701,0.549-1.4,1.1-1.801l2.101-1.801
		c1.25,0.25,2.5,0.5,3.601,0.75C204.891,276.702,199.991,275.001,195.292,273.151z"/>
	<path id="path10" fill="#949A94" d="M204.842,283.501c0.701,0,1.25-0.25,1.801-0.648l4.851-4.051l0.149-0.148
		c-0.6-0.148-1.199-0.301-2.051-0.449c-1.101-0.25-2.351-0.5-3.601-0.75l-2.101,1.801c-0.551,0.398-0.949,1.1-1.101,1.801
		c-0.149,0.648,0,1.199,0.399,1.799C203.592,283.251,204.191,283.501,204.842,283.501z M219.391,280.751l-0.351,0.301l-2.95,2.449
		c-0.55,0.451-1,1.15-1.101,1.801c-0.149,0.699,0,1.25,0.399,1.801c0.399,0.449,0.851,0.699,1.5,0.699
		c0.699,0,1.399-0.25,1.949-0.699l5.602-4.602l0.25-0.25C222.891,281.851,221.191,281.302,219.391,280.751z"/>
	<path id="path13" fill="#CCCCCC" d="M59.441,280.751l-0.15,0.852l56.8,29.201l0.4-1.803l3.45-17.049v-0.102l-0.4-0.148
		l-46.4-23.951L59.441,280.751z M72.741,281.452c0-0.701,0.25-1.102,0.7-1.551l5.95-5.5l4.15,2.199l-7.1,6.65
		c-0.4,0.398-0.95,0.551-1.65,0.551c-0.7,0-1.1-0.301-1.5-0.701C72.841,282.702,72.741,282.151,72.741,281.452z M94.591,282.251
		l-7.2,6.951c-0.4,0.398-0.95,0.549-1.65,0.398c-0.7,0-1.1-0.25-1.5-0.699c-0.45-0.4-0.7-0.949-0.55-1.5
		c0-0.699,0.25-1.1,0.65-1.551l6.1-5.799L94.591,282.251z M116.891,293.751l-7.05,6.553c-0.4,0.398-0.95,0.549-1.65,0.549
		c-0.7,0-1.1-0.299-1.55-0.699c-0.4-0.4-0.55-1-0.55-1.65c0-0.697,0.3-1.148,0.7-1.549l5.8-5.398L116.891,293.751z M100.841,285.452
		l4.15,2.25l-7.2,6.75c-0.4,0.449-0.95,0.549-1.65,0.549c-0.7-0.1-1.1-0.25-1.55-0.697c-0.4-0.553-0.55-1.102-0.55-1.65
		c0-0.699,0.3-1.1,0.7-1.5L100.841,285.452z"/>
	<path id="path14" fill="#949A94" d="M72.741,281.452c0,0.699,0.1,1.25,0.55,1.648c0.4,0.4,0.8,0.701,1.5,0.701
		c0.7,0,1.25-0.15,1.65-0.551l7.1-6.65l-4.15-2.199l-5.95,5.5C72.991,280.351,72.741,280.751,72.741,281.452z"/>
	<path id="path17" fill="#949A94" d="M94.591,282.251l-4.15-2.199l-6.1,5.801c-0.4,0.449-0.65,0.852-0.65,1.551
		c-0.15,0.551,0.1,1.1,0.55,1.5c0.4,0.449,0.8,0.699,1.5,0.699c0.7,0.148,1.25,0,1.65-0.398L94.591,282.251z"/>
	<path id="path20" fill="#949A94" d="M116.891,293.751l-4.3-2.197l-5.8,5.398c-0.4,0.398-0.7,0.852-0.7,1.549
		c0,0.65,0.15,1.25,0.55,1.65c0.45,0.4,0.85,0.699,1.55,0.699c0.7,0,1.25-0.148,1.65-0.549L116.891,293.751z"/>
	<path id="path23" fill="#949A94" d="M100.841,285.452l-6.1,5.699c-0.4,0.4-0.7,0.801-0.7,1.5c0,0.551,0.15,1.1,0.55,1.65
		c0.45,0.447,0.85,0.6,1.55,0.697c0.7,0,1.25-0.1,1.65-0.549l7.2-6.75L100.841,285.452z M63.292,262.601l-0.25,0.301l-3.6,17.85
		l13.7-13L63.292,262.601z"/>
	
		<linearGradient id="path26_1_" gradientUnits="userSpaceOnUse" x1="1229.2324" y1="-356.3574" x2="1286.0824" y2="-385.6574" gradientTransform="matrix(1 0 0 -1 -1163.8799 -92.4805)">
		<stop  offset="0" style="stop-color:#9C0000"/>
		<stop  offset="0.4549" style="stop-color:#FF1010"/>
		<stop  offset="1" style="stop-color:#A50400"/>
	</linearGradient>
	<path id="path26" fill="url(#path26_1_)" d="M63.042,262.901l0.25-0.301h-0.25V262.901z"/>
	
		<linearGradient id="path29_1_" gradientUnits="userSpaceOnUse" x1="1228.9121" y1="-341.7041" x2="1315.2632" y2="-366.1543" gradientTransform="matrix(1 0 0 -1 -1163.8799 -92.4805)">
		<stop  offset="0" style="stop-color:#FFFFFF"/>
		<stop  offset="0.4549" style="stop-color:#B9B9B9"/>
		<stop  offset="1" style="stop-color:#FFFFFF"/>
	</linearGradient>
	<path id="path29" fill="url(#path29_1_)" d="M63.292,262.601l9.85,5.15l46.4,23.949l33.65-31.449
		c-18.7-9.699-37.25-19.4-55.95-28.949l-2.5,1.549l-14.15,13.4L63.292,262.601z M116.341,259.001l0.7-0.398l13.3,6.898l-7.9,7.65
		l-13.55-7.1L116.341,259.001z M108.341,254.552l-8.05,7.5l-13.45-6.9l7.5-7.1l0.55-0.4L108.341,254.552z"/>
	<path id="path30" fill="#666666" d="M116.341,259.001l-7.45,7.051l13.55,7.102l7.9-7.648l-13.3-6.9L116.341,259.001z"/>
	<path id="path33" fill="#666666" d="M108.341,254.552l-13.45-6.9l-0.55,0.4l-7.5,7.1l13.45,6.9L108.341,254.552z"/>
	<path id="path36" fill="#979896" d="M153.191,260.251L153.191,260.251l-33.65,31.45l0,0l0,0l-3.36,18.697l25.56-24.748l8.8-8.199
		L153.191,260.251z"/>
	<polyline fill="#0748E8" points="63.292,262.601 119.542,291.702 118.924,296.202 62.152,267.751 63.292,262.601 	"/>
</g>
</svg>
