<?xml version="1.0" encoding="UTF-8" standalone="no"?><!-- Generator: Gravit.io --><svg xmlns="http://www.w3.org/2000/svg" xmlns:xlink="http://www.w3.org/1999/xlink" style="isolation:isolate" viewBox="0 0 256 256" width="256pt" height="256pt"><defs><clipPath id="_clipPath_oJwOasGjglw5vEX6alUVplNPx7NHVRE7"><rect width="256" height="256"/></clipPath></defs><g clip-path="url(#_clipPath_oJwOasGjglw5vEX6alUVplNPx7NHVRE7)"><g><path d=" M 191.797 200.688 L 143.02 200.688 L 143.02 200.688 Q 139.386 200.688 136.995 198.679 L 136.995 198.679 L 136.995 198.679 Q 134.604 196.671 134.604 193.228 L 134.604 193.228 L 134.604 58.755 L 134.604 58.755 Q 134.604 55.504 136.708 53.399 L 136.708 53.399 L 136.708 53.399 Q 138.812 51.295 142.064 51.295 L 142.064 51.295 L 188.546 51.295 L 188.546 51.295 Q 200.023 51.295 209.3 56.173 L 209.3 56.173 L 209.3 56.173 Q 218.577 61.051 224.029 69.467 L 224.029 69.467 L 224.029 69.467 Q 229.48 77.884 229.48 88.978 L 229.48 88.978 L 229.48 88.978 Q 229.48 99.307 223.933 107.341 L 223.933 107.341 L 223.933 107.341 Q 218.386 115.375 209.396 119.584 L 209.396 119.584 L 209.396 119.584 Q 222.211 123.027 230.054 132.495 L 230.054 132.495 L 230.054 132.495 Q 237.897 141.964 237.897 156.501 L 237.897 156.501 L 237.897 156.501 Q 237.897 169.509 231.967 179.455 L 231.967 179.455 L 231.967 179.455 Q 226.037 189.402 215.612 195.045 L 215.612 195.045 L 215.612 195.045 Q 205.187 200.688 191.797 200.688 L 191.797 200.688 Z  M 149.524 128 L 149.524 186.341 L 191.797 186.341 L 191.797 186.341 Q 200.979 186.341 208.057 182.707 L 208.057 182.707 L 208.057 182.707 Q 215.134 179.073 219.151 172.378 L 219.151 172.378 L 219.151 172.378 Q 223.168 165.683 223.168 156.501 L 223.168 156.501 L 223.168 156.501 Q 223.168 147.893 219.151 141.486 L 219.151 141.486 L 219.151 141.486 Q 215.134 135.077 208.057 131.539 L 208.057 131.539 L 208.057 131.539 Q 200.979 128 191.797 128 L 191.797 128 L 149.524 128 Z  M 149.524 65.642 L 149.524 113.654 L 188.546 113.654 L 188.546 113.654 Q 200.023 113.654 207.483 107.15 L 207.483 107.15 L 207.483 107.15 Q 214.943 100.646 214.943 88.978 L 214.943 88.978 L 214.943 88.978 Q 214.943 77.501 207.483 71.571 L 207.483 71.571 L 207.483 71.571 Q 200.023 65.642 188.546 65.642 L 188.546 65.642 L 149.524 65.642 Z " fill-rule="evenodd" fill="rgb(255,255,255)"/><path d=" M 26.232 201.167 Q 26.811 169.509 26.811 156.501 L 26.811 156.501 L 26.811 156.501 Q 26.811 141.964 34.654 132.495 L 34.654 132.495 L 34.654 132.495 Q 42.496 123.027 55.312 119.584 L 55.312 119.584 L 55.312 119.584 Q 46.322 115.375 40.775 107.341 L 40.775 107.341 L 40.775 107.341 Q 35.227 99.307 35.227 88.978 L 35.227 88.978 L 35.227 88.978 Q 35.227 77.884 40.679 69.467 L 40.679 69.467 L 40.679 69.467 Q 46.131 61.051 55.408 56.173 L 55.408 56.173 L 55.408 56.173 Q 64.685 51.295 76.162 51.295 L 76.162 51.295 L 122.644 51.295 L 122.644 51.295 Q 125.896 51.295 128 53.399 L 128 53.399 L 128 53.399 Q 130.104 55.504 130.104 58.755 L 130.104 58.755 L 130.104 193.228 L 130.104 193.228 Q 130.104 196.671 127.713 198.679 L 127.713 198.679 L 127.713 198.679 Q 125.322 200.688 121.688 200.688 L 121.688 200.688 L 115.184 201.167 L 115.184 195.095 L 115.184 186.341 L 115.184 128 L 72.91 128 L 72.91 128 Q 63.729 128 56.651 131.539 L 56.651 131.539 L 56.651 131.539 Q 49.574 135.077 45.557 141.486 L 45.557 141.486 L 45.557 141.486 Q 41.54 147.893 41.54 156.501 L 41.54 156.501 L 41.54 156.501 C 41.54 162.542 40.514 191.011 40.232 201.167 L 26.232 201.167 Z  M 115.184 65.642 L 115.184 113.654 L 76.162 113.654 L 76.162 113.654 Q 64.685 113.654 57.225 107.15 L 57.225 107.15 L 57.225 107.15 Q 49.765 100.646 49.765 88.978 L 49.765 88.978 L 49.765 88.978 Q 49.765 77.501 57.225 71.571 L 57.225 71.571 L 57.225 71.571 Q 64.685 65.642 76.162 65.642 L 76.162 65.642 L 115.184 65.642 Z " fill-rule="evenodd" fill="rgb(255,255,255)"/></g></g></svg>