<?xml version="1.0" encoding="UTF-8" standalone="no"?><!-- Generator: Gravit.io --><svg xmlns="http://www.w3.org/2000/svg" xmlns:xlink="http://www.w3.org/1999/xlink" style="isolation:isolate" viewBox="0 0 609.968 210.788" width="609.968pt" height="210.788pt"><defs><clipPath id="_clipPath_9WA3WO1xZAwO4tAEbQKfkJ5bANF6EMeE"><rect width="609.968" height="210.788"/></clipPath></defs><g clip-path="url(#_clipPath_9WA3WO1xZAwO4tAEbQKfkJ5bANF6EMeE)"><g><path d=" M 539.84 210.788 L 539.84 210.788 L 539.84 210.788 Q 522.38 210.788 509.107 204.755 L 509.107 204.755 L 509.107 204.755 Q 495.833 198.722 486.89 188.359 L 486.89 188.359 L 486.89 188.359 Q 477.947 177.996 473.333 164.581 L 473.333 164.581 L 473.333 164.581 Q 468.72 151.166 468.72 136.403 L 468.72 136.403 L 468.72 136.403 Q 468.72 115.251 477.308 98.855 L 477.308 98.855 L 477.308 98.855 Q 485.896 82.459 501.725 72.947 L 501.725 72.947 L 501.725 72.947 Q 517.553 63.436 539.414 63.436 L 539.414 63.436 L 539.414 63.436 Q 556.307 63.436 569.368 68.973 L 569.368 68.973 L 569.368 68.973 Q 582.428 74.509 591.513 84.446 L 591.513 84.446 L 591.513 84.446 Q 600.598 94.383 605.283 107.656 L 605.283 107.656 L 605.283 107.656 Q 609.968 120.929 609.968 136.403 L 609.968 136.403 L 609.968 136.403 Q 609.968 157.27 601.45 174.163 L 601.45 174.163 L 601.45 174.163 Q 592.933 191.056 577.246 200.922 L 577.246 200.922 L 577.246 200.922 Q 561.56 210.788 539.84 210.788 Z  M 539.84 190.347 L 539.84 190.347 L 539.84 190.347 Q 555.314 190.347 565.535 182.681 L 565.535 182.681 L 565.535 182.681 Q 575.756 175.015 580.866 162.665 L 580.866 162.665 L 580.866 162.665 Q 585.977 150.314 585.977 136.403 L 585.977 136.403 L 585.977 136.403 Q 585.977 120.503 580.298 108.721 L 580.298 108.721 L 580.298 108.721 Q 574.62 96.938 564.257 90.408 L 564.257 90.408 L 564.257 90.408 Q 553.894 83.878 539.698 83.878 L 539.698 83.878 L 539.698 83.878 Q 524.367 83.878 513.862 90.834 L 513.862 90.834 L 513.862 90.834 Q 503.357 97.79 498.034 109.715 L 498.034 109.715 L 498.034 109.715 Q 492.71 121.639 492.71 136.403 L 492.71 136.403 L 492.71 136.403 Q 492.71 150.314 497.892 162.665 L 497.892 162.665 L 497.892 162.665 Q 503.073 175.015 513.578 182.681 L 513.578 182.681 L 513.578 182.681 Q 524.083 190.347 539.84 190.347 Z " fill-rule="evenodd" fill="rgb(0,0,0)"/><path d=" M 435.249 210.665 L 411.826 210.665 L 411.826 210.665 Q 411.826 194.908 411.826 180.428 L 411.826 180.428 L 411.826 180.428 Q 411.826 165.949 411.826 148.488 L 411.826 148.488 L 411.826 70.553 L 411.826 70.553 Q 411.826 52.666 411.826 35.773 L 411.826 35.773 L 411.826 35.773 Q 411.826 18.88 411.826 2.839 L 411.826 2.839 L 435.249 0 L 435.249 0 Q 435.249 17.177 435.249 34.425 L 435.249 34.425 L 435.249 34.425 Q 435.249 51.673 435.249 70.553 L 435.249 70.553 L 435.249 148.488 L 435.249 148.488 Q 435.249 165.949 435.249 180.428 L 435.249 180.428 L 435.249 180.428 Q 435.249 194.908 435.249 210.665 L 435.249 210.665 Z " fill="rgb(0,0,0)"/><g opacity="0.82"><path d=" M 235.935 63.923 Q 235.935 74.871 235.935 88.127 L 235.935 88.127 L 235.935 88.127 Q 235.935 98.478 235.935 108.702 L 235.935 108.702 L 235.935 108.702 Q 235.935 118.927 235.935 127.321 L 235.935 127.321 L 235.935 127.321 Q 235.935 135.715 235.935 141.017 L 235.935 141.017 L 235.935 141.017 Q 235.935 161.97 243.319 177.686 L 243.319 177.686 L 243.319 177.686 Q 250.703 193.401 266.419 202.048 L 266.419 202.048 L 266.419 202.048 Q 282.134 210.694 307.253 210.694 L 307.253 210.694 L 307.253 210.694 Q 331.994 210.694 347.646 202.048 L 347.646 202.048 L 347.646 202.048 Q 363.298 193.401 370.746 177.686 L 370.746 177.686 L 370.746 177.686 Q 378.193 161.97 378.193 141.017 L 378.193 141.017 L 378.193 141.017 Q 378.193 135.967 378.193 127.51 L 378.193 127.51 L 378.193 127.51 Q 378.193 119.053 378.193 108.765 L 378.193 108.765 L 378.193 108.765 Q 378.193 98.478 378.193 88.127 L 378.193 88.127 L 378.193 88.127 Q 378.193 74.871 378.193 63.923 L 355.472 63.923 Q 355.472 74.871 355.472 88.127 L 355.472 88.127 L 355.472 138.492 L 355.472 138.492 Q 355.472 155.028 350.802 166.767 L 350.802 166.767 L 350.802 166.767 Q 346.131 178.506 335.591 184.755 L 335.591 184.755 L 335.591 184.755 Q 325.051 191.003 307.253 191.003 L 307.253 191.003 L 307.253 191.003 Q 289.581 191.003 278.915 184.755 L 278.915 184.755 L 278.915 184.755 Q 268.249 178.506 263.452 166.767 L 263.452 166.767 L 263.452 166.767 Q 258.656 155.028 258.656 138.744 L 258.656 138.744 L 258.656 88.127 L 258.656 88.127 Q 258.656 74.871 258.656 63.923 L 235.935 63.923 Z " fill="rgb(0,0,0)"/></g><path d=" M 113.411 115.152 Q 117.684 108.405 123.006 102.706 L 123.006 102.706 L 123.006 102.706 Q 129.04 96.247 136.35 92.415 L 136.35 92.415 L 136.35 92.415 Q 143.661 88.582 152.605 88.582 L 152.605 88.582 L 152.605 88.582 Q 167.51 88.582 173.189 97.241 L 173.189 97.241 L 173.189 97.241 Q 178.867 105.901 178.867 122.794 L 178.867 122.794 L 178.867 149.482 L 178.867 149.482 Q 178.867 165.523 178.867 180.215 L 178.867 180.215 L 178.867 180.215 Q 178.867 194.908 178.867 210.665 L 178.867 210.665 L 202.29 210.665 L 202.29 210.665 Q 202.29 194.908 202.29 180.073 L 202.29 180.073 L 202.29 180.073 Q 202.29 165.239 202.29 148.488 L 202.29 148.488 L 202.29 148.488 Q 202.29 140.254 202.29 133.156 L 202.29 133.156 L 202.29 133.156 Q 202.29 126.059 202.29 116.831 L 202.29 116.831 L 202.29 116.831 Q 202.29 92.84 192.708 79.638 L 192.708 79.638 L 192.708 79.638 Q 183.126 66.436 160.98 66.436 L 160.98 66.436 L 160.98 66.436 Q 149.056 66.436 139.686 70.766 L 139.686 70.766 L 139.686 70.766 Q 130.317 75.096 123.29 81.697 L 123.29 81.697 L 123.29 81.697 Q 116.263 88.298 111.437 94.828 L 111.437 94.828 L 109.683 94.828 Q 106.436 82.272 98.59 75.025 L 98.59 75.025 L 98.59 75.025 Q 89.291 66.436 71.973 66.436 L 71.973 66.436 L 71.973 66.436 Q 60.048 66.436 50.821 70.766 L 50.821 70.766 L 50.821 70.766 Q 41.594 75.096 34.851 81.555 L 34.851 81.555 L 34.851 81.555 Q 28.108 88.014 23.707 94.26 L 23.707 94.26 L 21.152 94.26 L 20.442 68.424 L 0 69.843 L 0 69.843 Q 0 86.026 0 102.352 L 0 102.352 L 0 102.352 Q 0 118.677 0 134.292 L 0 134.292 L 0 148.488 L 0 148.488 Q 0 165.949 0 180.428 L 0 180.428 L 0 180.428 Q 0 194.908 0 210.665 L 0 210.665 L 23.423 210.665 L 23.423 210.665 Q 23.423 194.908 23.423 180.499 L 23.423 180.499 L 23.423 180.499 Q 23.423 166.091 23.423 149.482 L 23.423 149.482 L 23.423 116.973 L 23.423 116.973 Q 28.25 109.308 34.141 102.848 L 34.141 102.848 L 34.141 102.848 Q 40.032 96.389 47.343 92.486 L 47.343 92.486 L 47.343 92.486 Q 54.654 88.582 63.739 88.582 L 63.739 88.582 L 63.739 88.582 Q 78.645 88.582 84.323 97.241 L 84.323 97.241 L 84.323 97.241 Q 90.001 105.901 90.001 122.794 L 90.001 122.794 L 90.001 149.482 L 90.001 149.482 Q 90.001 165.523 90.001 180.215 L 90.001 180.215 L 90.001 180.215 Q 90.001 194.908 90.001 210.665 L 90.001 210.665 L 113.424 210.665 L 113.424 210.665 Q 113.424 194.908 113.424 180.073 L 113.424 180.073 L 113.424 180.073 Q 113.424 165.239 113.424 148.488 L 113.424 148.488 L 113.424 148.488 Q 113.424 140.254 113.424 133.156 L 113.424 133.156 L 113.424 133.156 Q 113.424 126.059 113.424 116.831 L 113.424 116.831 L 113.424 116.831 Q 113.424 115.985 113.411 115.152 Z " fill="rgb(0,0,0)"/></g></g></svg>