<?xml version="1.0" standalone="no"?>
<!-- Generator: Adobe Fireworks 10, Export SVG Extension by Aaron Beall (http://fireworks.abeall.com) . Version: 0.6.1  -->
<!DOCTYPE svg PUBLIC "-//W3C//DTD SVG 1.1//EN" "http://www.w3.org/Graphics/SVG/1.1/DTD/svg11.dtd">
<svg id="educationIcon.fw-Page%201" viewBox="0 0 448 448" style="background-color:#e4e4e4" version="1.1"
	xmlns="http://www.w3.org/2000/svg" xmlns:xlink="http://www.w3.org/1999/xlink" xml:space="preserve"
	x="0px" y="0px" width="448px" height="448px"
>
	<g id="Layer%201">
		<g>
			<g>
				<g>
					<path d="M 165.7838 108.0604 C 165.7838 104.3274 167.201 102.9083 170.9288 102.9083 L 215.1151 102.9083 C 218.8429 102.9083 220.2601 104.3274 220.2601 108.0604 L 220.2602 343.8478 C 220.2601 347.5808 218.8429 349 215.1151 349 L 170.9288 349 C 167.201 349 165.7838 347.5808 165.7838 343.8478 L 165.7838 108.0604 Z" fill="#1d71a3"/>
					<path d="M 177.8897 132.9121 C 177.8896 132.4099 178.2961 132.0029 178.7976 132.0029 L 209.6675 132.0029 C 210.169 132.0029 210.5755 132.4099 210.5754 132.9121 L 210.5755 134.7305 C 210.5755 135.2326 210.169 135.6397 209.6675 135.6397 L 178.7976 135.6397 C 178.2961 135.6397 177.8896 135.2326 177.8896 134.7305 L 177.8897 132.9121 Z" fill="#ffffff"/>
					<path d="M 177.8896 149.8839 C 177.8896 149.3818 178.2962 148.9747 178.7976 148.9747 L 209.6675 148.9747 C 210.1689 148.9747 210.5755 149.3818 210.5755 149.8839 L 210.5755 151.7023 C 210.5755 152.2045 210.1689 152.6115 209.6675 152.6115 L 178.7976 152.6115 C 178.2961 152.6115 177.8897 152.2045 177.8896 151.7023 L 177.8896 149.8839 Z" fill="#ffffff"/>
					<path d="M 227.5237 108.0604 C 227.5237 104.3274 228.9408 102.9083 232.6686 102.9083 L 276.855 102.9083 C 280.5829 102.9083 282 104.3274 282 108.0604 L 282 343.8478 C 282 347.5808 280.5828 349 276.855 349 L 232.6686 349 C 228.9408 349 227.5237 347.5808 227.5237 343.8478 L 227.5237 108.0604 Z" fill="#b03c01"/>
					<path d="M 239.6295 132.9121 C 239.6295 132.4099 240.036 132.0029 240.5374 132.0029 L 271.4074 132.0029 C 271.9088 132.0029 272.3153 132.4099 272.3153 132.9121 L 272.3153 134.7305 C 272.3153 135.2326 271.9088 135.6397 271.4074 135.6397 L 240.5374 135.6397 C 240.036 135.6397 239.6295 135.2326 239.6295 134.7305 L 239.6295 132.9121 Z" fill="#ffffff"/>
					<path d="M 239.6295 149.8839 C 239.6295 149.3818 240.036 148.9747 240.5375 148.9747 L 271.4073 148.9747 C 271.9088 148.9747 272.3153 149.3818 272.3153 149.8839 L 272.3153 151.7023 C 272.3153 152.2045 271.9088 152.6115 271.4073 152.6115 L 240.5374 152.6115 C 240.036 152.6115 239.6295 152.2045 239.6295 151.7023 L 239.6295 149.8839 Z" fill="#ffffff"/>
					<path d="M 113.8345 102.9299 C 114.7876 99.4004 116.5056 98.4065 120.0714 99.3199 L 162.2939 110.1361 C 165.8523 111.0477 166.8497 112.7354 165.9145 116.265 L 105.6005 343.9196 C 104.6254 347.6002 102.8704 348.6535 99.2294 347.742 L 56.025 336.9258 C 52.3761 336.0123 51.3668 334.2651 52.3607 330.5844 L 113.8345 102.9299 Z" fill="#ff9c22"/>
					<path d="M 116.1946 128.0946 C 116.2861 127.5754 116.7617 127.2431 117.2569 127.3533 L 148.1267 134.2228 C 148.6344 134.3358 148.9471 134.8492 148.825 135.3687 L 148.3848 137.2421 C 148.2638 137.7572 147.7569 138.0826 147.2526 137.9696 L 116.5909 131.0987 C 116.099 130.9885 115.7738 130.4823 115.8645 129.9673 L 116.1946 128.0946 Z" fill="#ffffff"/>
					<path d="M 113.1946 145.1185 C 113.2808 144.6291 113.74 144.3211 114.2202 144.4313 L 144.1422 151.3021 C 144.6342 151.4151 144.9398 151.9039 144.8249 152.3932 L 144.4102 154.1579 C 144.2961 154.6432 143.8075 154.9445 143.3189 154.8316 L 113.5923 147.962 C 113.1153 147.8518 112.7979 147.3694 112.8835 146.8839 L 113.1946 145.1185 Z" fill="#ffffff"/>
					<path d="M 334.4109 102.9298 C 333.4579 99.4004 331.7399 98.4065 328.1741 99.3199 L 285.9515 110.1361 C 282.3932 111.0477 281.3959 112.7354 282.331 116.265 L 342.645 343.9196 C 343.6201 347.6002 345.375 348.6535 349.0161 347.742 L 392.2205 336.9258 C 395.8694 336.0123 396.8787 334.2651 395.8848 330.5845 L 334.4109 102.9298 Z" fill="#18b364"/>
					<path d="M 332.0509 128.0946 C 331.9594 127.5754 331.4838 127.2431 330.9886 127.3533 L 300.1188 134.2228 C 299.6111 134.3358 299.2984 134.8492 299.4205 135.3687 L 299.8607 137.2421 C 299.9817 137.7572 300.4886 138.0826 300.9929 137.9696 L 331.6545 131.0987 C 332.1465 130.9885 332.4717 130.4823 332.381 129.9673 L 332.0509 128.0946 Z" fill="#ffffff"/>
					<path d="M 335.051 145.1185 C 334.9647 144.6291 334.5055 144.3211 334.0253 144.4313 L 304.1032 151.3021 C 303.6113 151.4151 303.3057 151.9039 303.4207 152.3932 L 303.8353 154.1579 C 303.9493 154.6432 304.4379 154.9445 304.9266 154.8316 L 334.6531 147.962 C 335.1302 147.8518 335.4476 147.3694 335.3621 146.8839 L 335.051 145.1185 Z" fill="#ffffff"/>
				</g>
			</g>
		</g>
	</g>
</svg>