<?xml version="1.0" encoding="utf-8"?>
<!-- Generator: Adobe Illustrator 18.0.0, SVG Export Plug-In . SVG Version: 6.00 Build 0)  -->
<!DOCTYPE svg PUBLIC "-//W3C//DTD SVG 1.1//EN" "http://www.w3.org/Graphics/SVG/1.1/DTD/svg11.dtd">
<svg version="1.1" id="Layer_1" xmlns="http://www.w3.org/2000/svg" xmlns:xlink="http://www.w3.org/1999/xlink" x="0px" y="0px"
	 viewBox="0 0 283.5 212.6" enable-background="new 0 0 283.5 212.6" xml:space="preserve">
<g id="Untitled-1" image-rendering="optimizeSpeed">
	<rect x="35.4" y="0" fill="#D6D6D6" width="211.2" height="212.6"/>
</g>
<g>
	
		<linearGradient id="path_1_" gradientUnits="userSpaceOnUse" x1="1395.5057" y1="-235.6384" x2="1274.3818" y2="-375.8871" gradientTransform="matrix(0.5315 0 0 -0.5315 -583.1722 -49.1534)">
		<stop  offset="0" style="stop-color:#9C0000"/>
		<stop  offset="0.7647" style="stop-color:#652001"/>
		<stop  offset="1" style="stop-color:#A50400"/>
	</linearGradient>
	<path id="path" fill="url(#path_1_)" d="M219.9,88.7c-1-1.8-1.6-3.5-2-4.8c-3.1-5.5-6.9-11.1-11.1-16.9
		c-12.8-15.8-26-24.3-39.4-25.5c-1.8-0.2-3.4-0.4-4.9-0.4c-4.5-0.1-8.4,1-11.7,3c-6.4,2.6-11.4,6.6-15.1,12.1
		C123,49,111.5,44.8,101.2,43.6c-5.7-0.8-10.3-0.7-13.6,0.2c-11.4,2.4-18.2,8.5-20.3,18.1c-0.1,0.3-0.2,0.6-0.2,1l-0.2,1
		c-0.5,3.6-0.5,7.6,0.2,12.1c0.2,2.9,0.8,6,2,9.2c0.2,0.5,0.5,1,0.8,1.5c0.1,0.4,0.2,0.9,0.4,1.4c1,1.9,2.2,4,3.8,6.3
		c8.6,13.3,21.8,24.5,39.4,33.5c10.6,5.3,21.4,10,32.5,14.5c5.8,2.3,11.7,4.6,17.8,6.7c0.2,0.1,0.3,0.1,0.4,0.2
		c0.4,0.2,0.9,0.3,1.2,0.4l29.1,9c-0.2-0.4-0.2-0.7,0-0.7c4-6.3,8.2-12.3,12.5-18c4.1-7.1,8.2-14,12.2-20.8
		C223.6,109.7,223.8,99.4,219.9,88.7z"/>
	
		<linearGradient id="path1_1_" gradientUnits="userSpaceOnUse" x1="1452.8807" y1="-186.3294" x2="1437.3563" y2="-213.9535" gradientTransform="matrix(0.5315 0 0 -0.5315 -583.1722 -49.1534)">
		<stop  offset="0" style="stop-color:#FF1010"/>
		<stop  offset="1" style="stop-color:#9C0000"/>
	</linearGradient>
	<path id="path1" fill="url(#path1_1_)" d="M205.9,67.9c-4-6.5-9.2-11.9-15.6-16.1c-6.4-4.2-11.7-6.8-15.7-7.8
		c-4.1-1-6.6-1.4-7.4-1.3c-8.9-0.2-17,2.7-24.4,8.5c1.6-0.4,3.5-0.4,5.6-0.4c19.2,6.4,36.5,15.5,51.8,27.2l0.3-1l12.8,10.9
		c-0.2-0.4-0.5-0.7-0.7-1.1c-4.6-7.1-5.8-10.4-3.8-9.9C210.9,77.5,209.9,74.5,205.9,67.9z"/>
	<path id="path7" fill="#5B1B05" d="M194.5,158.7l-29.1-10c-0.3-0.2-0.7-0.3-1.2-0.4c-0.1-0.1-0.2-0.1-0.4-0.2
		c-6-2.1-11.9-4.3-17.8-6.7c-11.1-4.4-21.8-9.2-32.5-14.4c-17.7-9-30.9-20.3-39.5-33.5c-1.6-2.3-2.9-4.4-3.8-6.3
		c-0.2-0.5-0.4-1-0.4-1.4c-0.3-0.5-0.6-1-0.8-1.5c-1.2-3.3-1.9-6.4-2-9.2c-0.7-4.5-0.7-8.5-0.2-12.1l0.2-1c0.1-0.4,0.2-0.7,0.2-1
		c-9.3,25.7-7.3,46.9,6.1,63.4c1.6,2,3.3,3.9,4.9,5.5l7.5-7.1l1.3-0.9c9.9,5.1,19.8,10.3,29.8,15.4l0,0l-1.4,9.1l-4.7,4.4
		c7.3,2.9,15.1,5.3,23.6,7.1C161.7,163.7,181.7,164.6,194.5,158.7z"/>
	<path id="path8" fill="#999999" d="M137.5,144.9c-3.3-1.3-6.6-2.6-9.8-4l-1,0.6l-1.1,10.3l12.6-7
		C137.9,144.8,137.5,144.9,137.5,144.9z"/>
	
		<linearGradient id="path9_1_" gradientUnits="userSpaceOnUse" x1="1333.1328" y1="-379.5805" x2="1398.5078" y2="-379.5805" gradientTransform="matrix(0.5315 0 0 -0.5315 -583.1722 -49.1534)">
		<stop  offset="0" style="stop-color:#FFFFFF"/>
		<stop  offset="0.4549" style="stop-color:#ACACAC"/>
		<stop  offset="1" style="stop-color:#FFFFFF"/>
	</linearGradient>
	<path id="path9" fill="url(#path9_1_)" d="M139.2,145.2c-0.3-0.2-0.6-0.3-1-0.5l-12.6,7c14.5,5.3,25.6,8.2,33.2,8.8l1.6-9
		c-1.9-0.4-3.8-0.9-5.7-1.4l-3,2.4c-0.3,0.3-0.7,0.4-1,0.4c-0.3,0-0.6-0.2-0.8-0.4c-0.2-0.3-0.3-0.6-0.2-1c0.1-0.3,0.3-0.7,0.6-1
		l1.6-1.3c-1.4-0.4-2.7-0.8-4-1.2l-2.6,2.1c-0.3,0.2-0.6,0.3-1,0.3c-0.3,0-0.7-0.2-0.9-0.3c-0.2-0.3-0.3-0.6-0.2-1
		c0.1-0.4,0.3-0.7,0.6-1l1.1-1c0.7,0.2,1.3,0.3,1.9,0.4C144.3,147.1,141.7,146.2,139.2,145.2z"/>
	<path id="path10" fill="#949A94" d="M144.3,150.7c0.4,0,0.7-0.2,1-0.3l2.6-2.2l0.1-0.1c-0.3-0.1-0.6-0.2-1.1-0.2
		c-0.6-0.2-1.3-0.3-1.9-0.4l-1.1,1c-0.3,0.2-0.5,0.6-0.6,1c-0.1,0.3,0,0.6,0.2,1C143.6,150.6,144,150.7,144.3,150.7z M152,149.2
		l-0.2,0.2l-1.5,1.3c-0.3,0.3-0.5,0.6-0.6,1c-0.1,0.4,0,0.7,0.2,1c0.2,0.2,0.5,0.4,0.8,0.4c0.4,0,0.7-0.2,1-0.4l3-2.4l0.2-0.2
		C153.9,149.8,153,149.5,152,149.2z"/>
	<path id="path13" fill="#CCCCCC" d="M67,149.2l-0.1,0.5l30.2,15.5l0.2-1l1.8-9v-0.1l-0.2-0.1l-24.7-12.8L67,149.2z M74.1,149.6
		c0-0.4,0.2-0.6,0.4-0.9l3.1-2.9l2.2,1.2l-3.8,3.5c-0.2,0.2-0.5,0.3-0.9,0.3c-0.4,0-0.6-0.2-0.8-0.4C74.1,150.3,74.1,150,74.1,149.6
		z M85.7,150l-3.8,3.7c-0.2,0.2-0.5,0.3-0.9,0.2c-0.4,0-0.6-0.2-0.8-0.4c-0.2-0.2-0.4-0.5-0.3-0.8c0-0.4,0.2-0.6,0.4-0.9l3.2-3.1
		L85.7,150z M97.6,156.2l-3.8,3.5c-0.2,0.2-0.5,0.3-0.9,0.3c-0.4,0-0.6-0.2-0.9-0.4c-0.2-0.2-0.3-0.5-0.3-0.9c0-0.4,0.2-0.6,0.4-0.8
		l3.1-2.9L97.6,156.2z M89,151.7l2.2,1.2l-3.8,3.6c-0.2,0.2-0.5,0.3-0.9,0.3c-0.4-0.1-0.6-0.2-0.9-0.4c-0.2-0.3-0.3-0.6-0.3-0.9
		c0-0.4,0.2-0.6,0.4-0.8L89,151.7z"/>
	<path id="path14" fill="#949A94" d="M74.1,149.6c0,0.4,0.1,0.7,0.3,0.9c0.2,0.2,0.4,0.4,0.8,0.4s0.7-0.1,0.9-0.3l3.8-3.5l-2.2-1.2
		l-3.1,2.9C74.2,149,74.1,149.2,74.1,149.6z"/>
	<path id="path17" fill="#949A94" d="M85.7,150l-2.2-1.2l-3.2,3.1c-0.2,0.2-0.4,0.5-0.4,0.9c-0.1,0.3,0.1,0.6,0.3,0.8
		c0.2,0.2,0.4,0.4,0.8,0.4c0.4,0.1,0.7,0,0.9-0.2L85.7,150z"/>
	<path id="path20" fill="#949A94" d="M97.6,156.2l-2.3-1.2l-3.1,2.9c-0.2,0.2-0.4,0.5-0.4,0.8s0.1,0.7,0.3,0.9
		c0.2,0.2,0.4,0.4,0.9,0.4c0.4,0,0.7-0.1,0.9-0.3L97.6,156.2z"/>
	<path id="path23" fill="#949A94" d="M89,151.7l-3.2,3c-0.2,0.2-0.4,0.4-0.4,0.8c0,0.3,0.1,0.6,0.3,0.9c0.2,0.2,0.4,0.3,0.9,0.4
		c0.4,0,0.7-0.1,0.9-0.3l3.8-3.6L89,151.7z M69.1,139.6l-0.2,0.2l-1.9,9.5l7.3-6.9L69.1,139.6z"/>
	
		<linearGradient id="path26_1_" gradientUnits="userSpaceOnUse" x1="1229.229" y1="-356.3639" x2="1286.079" y2="-385.6639" gradientTransform="matrix(0.5315 0 0 -0.5315 -583.1722 -49.1534)">
		<stop  offset="0" style="stop-color:#9C0000"/>
		<stop  offset="0.4549" style="stop-color:#FF1010"/>
		<stop  offset="1" style="stop-color:#A50400"/>
	</linearGradient>
	<path id="path26" fill="url(#path26_1_)" d="M68.9,139.7l0.2-0.2h-0.2V139.7z"/>
	
		<linearGradient id="path29_1_" gradientUnits="userSpaceOnUse" x1="1228.9261" y1="-341.6549" x2="1315.2772" y2="-366.1051" gradientTransform="matrix(0.5315 0 0 -0.5315 -583.1722 -49.1534)">
		<stop  offset="0" style="stop-color:#FFFFFF"/>
		<stop  offset="0.4549" style="stop-color:#B9B9B9"/>
		<stop  offset="1" style="stop-color:#FFFFFF"/>
	</linearGradient>
	<path id="path29" fill="url(#path29_1_)" d="M69.1,139.6l5.2,2.7L98.9,155l17.9-16.7c-9.9-5.2-19.8-10.3-29.7-15.4l-1.3,0.8
		l-7.5,7.1L69.1,139.6z M97.2,137.7l0.4-0.2l7.1,3.7l-4.2,4l-7.2-3.8L97.2,137.7z M93,135.3l-4.3,4l-7.1-3.7l4-3.8l0.3-0.2L93,135.3
		z"/>
	<path id="path30" fill="#666666" d="M97.2,137.7l-3.9,3.8l7.2,3.8l4.2-4l-7.1-3.7L97.2,137.7z"/>
	<path id="path33" fill="#666666" d="M93,135.3l-7.1-3.7l-0.3,0.2l-4,3.8l7.1,3.7L93,135.3z"/>
	<path id="path36" fill="#979896" d="M116.9,138.3L116.9,138.3l-17.9,16.7l0,0l0,0l-1.8,9.9l13.6-13.1l4.7-4.4L116.9,138.3z"/>
	<polyline fill="#0748E8" points="69.1,139.6 98.9,155 98.6,157.4 68.5,142.3 69.1,139.6 	"/>
</g>
</svg>
