<?xml version="1.0" standalone="no"?>
<!DOCTYPE svg PUBLIC "-//W3C//DTD SVG 20010904//EN"
 "http://www.w3.org/TR/2001/REC-SVG-20010904/DTD/svg10.dtd">
<svg version="1.0" xmlns="http://www.w3.org/2000/svg"
 width="700.000000pt" height="700.000000pt" viewBox="0 0 700.000000 700.000000"
 preserveAspectRatio="xMidYMid meet">
<metadata>
Created by potrace 1.14, written by Peter Selinger 2001-2017
</metadata>
<g transform="translate(0.000000,700.000000) scale(0.100000,-0.100000)"
fill="#000000" stroke="none">
<path d="M1977 5595 c-1 -2 -29 -5 -62 -9 -130 -13 -364 -88 -416 -132 -8 -8
-19 -14 -23 -14 -19 0 -167 -112 -227 -173 -186 -185 -282 -421 -282 -687 -1
-154 13 -231 60 -350 77 -191 237 -367 427 -469 32 -17 52 -33 45 -35 -8 -2
-39 -12 -69 -22 -30 -9 -91 -35 -135 -57 -299 -149 -480 -382 -542 -697 -17
-88 -20 -203 -28 -888 -3 -282 -6 -516 -6 -520 -7 -42 -8 -42 191 -42 l190 0
1 38 c0 20 2 69 4 107 1 39 6 174 9 300 4 127 9 289 11 360 3 72 7 218 10 325
2 107 7 206 10 220 2 14 7 39 11 55 48 245 245 458 505 544 143 47 185 50 857
50 l632 1 0 -1001 0 -1001 88 6 c134 10 164 16 209 37 50 24 89 67 101 112 5
18 9 839 8 1917 -1 1780 -2 1887 -19 1917 -21 39 -51 69 -92 91 -27 15 -99 17
-748 18 -394 0 -718 0 -720 -1z m1173 -1047 l0 -658 -597 4 c-329 2 -614 6
-633 10 -275 54 -473 227 -535 466 -34 129 -23 366 20 453 8 17 15 34 15 40 0
5 20 37 44 71 72 101 180 177 311 221 91 31 99 33 180 41 33 4 61 7 62 8 1 1
256 1 567 1 l566 1 0 -658z"/>
<path d="M3829 5590 c-55 -16 -90 -42 -125 -95 -19 -29 -19 -66 -22 -1905 -2
-1329 0 -1890 8 -1926 12 -55 47 -97 110 -130 33 -18 73 -19 795 -19 418 0
792 3 830 7 57 6 237 46 280 62 6 2 21 7 35 12 52 16 237 116 295 159 308 231
465 553 468 958 1 91 -2 127 -18 232 -25 174 -113 347 -243 483 -125 130 -256
214 -434 277 l-77 27 57 30 c187 100 356 289 426 477 45 120 57 188 58 325 2
385 -185 697 -532 889 -108 60 -265 113 -391 133 -60 9 -1488 13 -1520 4z
m1471 -394 c25 -5 53 -10 64 -12 49 -9 135 -38 181 -61 221 -112 325 -282 329
-538 6 -321 -137 -537 -426 -645 -117 -43 -182 -47 -785 -48 l-573 0 0 657 0
657 583 -1 c320 -1 602 -5 627 -9z m90 -1706 c99 -15 121 -19 175 -37 63 -20
174 -74 229 -112 52 -36 141 -125 163 -162 10 -16 20 -29 24 -29 10 0 77 -151
95 -215 26 -96 28 -309 4 -420 -59 -267 -249 -475 -510 -559 -41 -13 -93 -27
-115 -31 -22 -4 -51 -9 -65 -12 -14 -2 -312 -5 -662 -6 l-638 -2 0 797 0 798
618 0 c339 0 646 -5 682 -10z"/>
</g>
</svg>
