<?xml version="1.0" encoding="UTF-8" standalone="no"?><!-- Generator: Gravit.io --><svg xmlns="http://www.w3.org/2000/svg" xmlns:xlink="http://www.w3.org/1999/xlink" style="isolation:isolate" viewBox="0 0 512 512" width="512pt" height="512pt"><defs><clipPath id="_clipPath_rmJUIgtJgofHyP60ShKBU5IJlANWIY6y"><rect width="512" height="512"/></clipPath></defs><g clip-path="url(#_clipPath_rmJUIgtJgofHyP60ShKBU5IJlANWIY6y)"><g><g><g><path d=" M 79.3 98 C 49.2 98 29.2 75.9 29.2 49.9 C 29.2 22.8 49.3 1.8 80.3 1.8 C 111.3 1.8 130.4 22.9 131.4 49.9 C 131.4 76 111.4 98 79.3 98 Z  M 32.1 136.1 L 128.4 136.1 L 128.4 446 L 32.1 446 L 32.1 136.1 Z  M 183.6 136.1 L 266.8 136.1 L 271.8 179.2 L 273.8 179.2 C 285.8 159.1 316.9 129.1 369.1 129.1 C 433.3 129.1 480.4 171.2 480.4 262.5 L 480.4 446 L 384.1 446 L 384.1 274.5 C 384.1 234.4 370.1 207.3 335 207.3 C 308.9 207.3 292.9 225.3 285.9 243.4 C 282.9 249.4 282.9 258.4 282.9 267.5 L 282.9 446 L 185.6 446 L 185.6 235.4 C 185.6 196.3 184.6 164.2 183.6 136.1 Z " fill="rgb(68,68,68)"/></g><g><path d=" M 79.3 98 C 49.2 98 29.2 75.9 29.2 49.9 C 29.2 22.8 49.3 1.8 80.3 1.8 C 111.3 1.8 130.4 22.9 131.4 49.9 C 131.4 76 111.4 98 79.3 98 Z  M 32.1 136.1 L 128.4 136.1 L 128.4 446 L 32.1 446 L 32.1 136.1 Z  M 183.6 136.1 L 266.8 136.1 L 271.8 179.2 L 273.8 179.2 C 285.8 159.1 316.9 129.1 369.1 129.1 C 433.3 129.1 480.4 171.2 480.4 262.5 L 480.4 446 L 384.1 446 L 384.1 274.5 C 384.1 234.4 370.1 207.3 335 207.3 C 308.9 207.3 292.9 225.3 285.9 243.4 C 282.9 249.4 282.9 258.4 282.9 267.5 L 282.9 446 L 185.6 446 L 185.6 235.4 C 185.6 196.3 184.6 164.2 183.6 136.1 Z " fill="rgb(51,51,51)"/></g></g></g></g></svg>