<?xml version="1.0" encoding="UTF-8" standalone="no"?><!-- Generator: Gravit.io --><svg xmlns="http://www.w3.org/2000/svg" xmlns:xlink="http://www.w3.org/1999/xlink" style="isolation:isolate" viewBox="0 0 331.694 703.968" width="331.694pt" height="703.968pt"><defs><clipPath id="_clipPath_xwlCsslQP8tj1deX9lJkD4pzM6MK3DDb"><rect width="331.694" height="703.968"/></clipPath></defs><g clip-path="url(#_clipPath_xwlCsslQP8tj1deX9lJkD4pzM6MK3DDb)"><defs><filter id="0LueOLHVILhwbBaeuKK4IMKMMa2M2tz9" x="-200%" y="-200%" width="400%" height="400%" filterUnits="objectBoundingBox" color-interpolation-filters="sRGB"><feGaussianBlur xmlns="http://www.w3.org/2000/svg" in="SourceGraphic" stdDeviation="30.913985252441005"/><feOffset xmlns="http://www.w3.org/2000/svg" dx="0" dy="0" result="pf_100_offsetBlur"/><feFlood xmlns="http://www.w3.org/2000/svg" flood-color="#FF9900" flood-opacity="1"/><feComposite xmlns="http://www.w3.org/2000/svg" in2="pf_100_offsetBlur" operator="in" result="pf_100_dropShadow"/><feBlend xmlns="http://www.w3.org/2000/svg" in="SourceGraphic" in2="pf_100_dropShadow" mode="normal"/></filter></defs><g filter="url(#0LueOLHVILhwbBaeuKK4IMKMMa2M2tz9)"><circle vector-effect="non-scaling-stroke" cx="165.84716796874994" cy="165.84716796874994" r="71.84716796874994" fill="rgb(255,255,255)"/></g><g><path d=" M 237.665 268.719 L 237.665 292.142 L 237.665 292.142 Q 221.908 292.142 207.428 292.142 L 207.428 292.142 L 207.428 292.142 Q 192.949 292.142 175.488 292.142 L 175.488 292.142 L 97.553 292.142 L 97.553 292.142 Q 79.666 292.142 62.773 292.142 L 62.773 292.142 L 62.773 292.142 Q 45.88 292.142 29.839 292.142 L 29.839 292.142 L 27 268.719 L 27 268.719 Q 44.177 268.719 61.425 268.719 L 61.425 268.719 L 61.425 268.719 Q 78.673 268.719 97.553 268.719 L 97.553 268.719 L 175.488 268.719 L 175.488 268.719 Q 192.949 268.719 207.428 268.719 L 207.428 268.719 L 207.428 268.719 Q 221.908 268.719 237.665 268.719 L 237.665 268.719 Z " fill="rgb(255,255,255)"/><path d=" M 90.923 468.033 Q 101.871 468.033 115.127 468.033 L 115.127 468.033 L 115.127 468.033 Q 125.478 468.033 135.702 468.033 L 135.702 468.033 L 135.702 468.033 Q 145.927 468.033 154.321 468.033 L 154.321 468.033 L 154.321 468.033 Q 162.715 468.033 168.017 468.033 L 168.017 468.033 L 168.017 468.033 Q 188.97 468.033 204.686 460.649 L 204.686 460.649 L 204.686 460.649 Q 220.401 453.264 229.048 437.549 L 229.048 437.549 L 229.048 437.549 Q 237.694 421.834 237.694 396.714 L 237.694 396.714 L 237.694 396.714 Q 237.694 371.974 229.048 356.321 L 229.048 356.321 L 229.048 356.321 Q 220.401 340.669 204.686 333.222 L 204.686 333.222 L 204.686 333.222 Q 188.97 325.774 168.017 325.774 L 168.017 325.774 L 168.017 325.774 Q 162.967 325.774 154.51 325.774 L 154.51 325.774 L 154.51 325.774 Q 146.053 325.774 135.765 325.774 L 135.765 325.774 L 135.765 325.774 Q 125.478 325.774 115.127 325.774 L 115.127 325.774 L 115.127 325.774 Q 101.871 325.774 90.923 325.774 L 90.923 348.495 Q 101.871 348.495 115.127 348.495 L 115.127 348.495 L 165.492 348.495 L 165.492 348.495 Q 182.028 348.495 193.767 353.166 L 193.767 353.166 L 193.767 353.166 Q 205.506 357.836 211.755 368.376 L 211.755 368.376 L 211.755 368.376 Q 218.003 378.916 218.003 396.714 L 218.003 396.714 L 218.003 396.714 Q 218.003 414.386 211.755 425.052 L 211.755 425.052 L 211.755 425.052 Q 205.506 435.719 193.767 440.515 L 193.767 440.515 L 193.767 440.515 Q 182.028 445.312 165.745 445.312 L 165.745 445.312 L 115.127 445.312 L 115.127 445.312 Q 101.871 445.312 90.923 445.312 L 90.923 468.033 Z " fill="rgb(255,255,255)"/><path d=" M 142.152 590.556 Q 135.405 586.284 129.706 580.961 L 129.706 580.961 L 129.706 580.961 Q 123.247 574.928 119.415 567.617 L 119.415 567.617 L 119.415 567.617 Q 115.582 560.306 115.582 551.363 L 115.582 551.363 L 115.582 551.363 Q 115.582 536.457 124.241 530.779 L 124.241 530.779 L 124.241 530.779 Q 132.901 525.101 149.794 525.101 L 149.794 525.101 L 176.482 525.101 L 176.482 525.101 Q 192.523 525.101 207.215 525.101 L 207.215 525.101 L 207.215 525.101 Q 221.908 525.101 237.665 525.101 L 237.665 525.101 L 237.665 501.678 L 237.665 501.678 Q 221.908 501.678 207.073 501.678 L 207.073 501.678 L 207.073 501.678 Q 192.239 501.678 175.488 501.678 L 175.488 501.678 L 175.488 501.678 Q 167.254 501.678 160.156 501.678 L 160.156 501.678 L 160.156 501.678 Q 153.059 501.678 143.831 501.678 L 143.831 501.678 L 143.831 501.678 Q 119.84 501.678 106.638 511.26 L 106.638 511.26 L 106.638 511.26 Q 93.436 520.842 93.436 542.987 L 93.436 542.987 L 93.436 542.987 Q 93.436 554.912 97.766 564.281 L 97.766 564.281 L 97.766 564.281 Q 102.096 573.65 108.697 580.677 L 108.697 580.677 L 108.697 580.677 Q 115.298 587.704 121.828 592.531 L 121.828 592.531 L 121.828 594.284 Q 109.272 597.531 102.025 605.378 L 102.025 605.378 L 102.025 605.378 Q 93.436 614.676 93.436 631.995 L 93.436 631.995 L 93.436 631.995 Q 93.436 643.919 97.766 653.147 L 97.766 653.147 L 97.766 653.147 Q 102.096 662.374 108.555 669.117 L 108.555 669.117 L 108.555 669.117 Q 115.014 675.86 121.26 680.261 L 121.26 680.261 L 121.26 682.816 L 95.424 683.526 L 96.843 703.968 L 96.843 703.968 Q 113.026 703.968 129.352 703.968 L 129.352 703.968 L 129.352 703.968 Q 145.677 703.968 161.292 703.968 L 161.292 703.968 L 175.488 703.968 L 175.488 703.968 Q 192.949 703.968 207.428 703.968 L 207.428 703.968 L 207.428 703.968 Q 221.908 703.968 237.665 703.968 L 237.665 703.968 L 237.665 680.544 L 237.665 680.544 Q 221.908 680.544 207.499 680.544 L 207.499 680.544 L 207.499 680.544 Q 193.091 680.544 176.482 680.544 L 176.482 680.544 L 143.973 680.544 L 143.973 680.544 Q 136.308 675.718 129.848 669.827 L 129.848 669.827 L 129.848 669.827 Q 123.389 663.935 119.486 656.625 L 119.486 656.625 L 119.486 656.625 Q 115.582 649.314 115.582 640.228 L 115.582 640.228 L 115.582 640.228 Q 115.582 625.323 124.241 619.645 L 124.241 619.645 L 124.241 619.645 Q 132.901 613.966 149.794 613.966 L 149.794 613.966 L 176.482 613.966 L 176.482 613.966 Q 192.523 613.966 207.215 613.966 L 207.215 613.966 L 207.215 613.966 Q 221.908 613.966 237.665 613.966 L 237.665 613.966 L 237.665 590.543 L 237.665 590.543 Q 221.908 590.543 207.073 590.543 L 207.073 590.543 L 207.073 590.543 Q 192.239 590.543 175.488 590.543 L 175.488 590.543 L 175.488 590.543 Q 167.254 590.543 160.156 590.543 L 160.156 590.543 L 160.156 590.543 Q 153.059 590.543 143.831 590.543 L 143.831 590.543 L 143.831 590.543 Q 142.985 590.543 142.152 590.556 Z " fill="rgb(255,255,255)"/></g></g></svg>