<?xml version="1.0" standalone="no"?>

<svg viewBox="0 0 448 448" style="background-color:#e4e4e4" version="1.1" xmlns="http://www.w3.org/2000/svg" xmlns:xlink="http://www.w3.org/1999/xlink" xml:space="preserve" x="0px" y="0px" width="100%" height="100%">
	<g id="Layer%201">
		<g>
			<g>
				<path d="M 155.8 102.9 C 156.8 99.4 158.5 98.4 162.1 99.3 L 204.3 110.1 C 207.9 111 208.8 112.7 207.9 116.3 L 147.6 343.9 C 146.6 347.6 144.9 348.7 141.2 347.7 L 98 336.9 C 94.4 336 93.4 334.3 94.4 330.6 L 155.8 102.9 Z" fill="#333333"/>
			</g>
			<path d="M 206.8 108.1 C 206.8 104.3 208.2 102.9 211.9 102.9 L 256.1 102.9 C 259.8 102.9 261.3 104.3 261.3 108.1 L 261.3 343.8 C 261.3 347.6 259.8 349 256.1 349 L 211.9 349 C 208.2 349 206.8 347.6 206.8 343.8 L 206.8 108.1 Z" fill="#333333"/>
			<path d="M 268.5 108.1 C 268.5 104.3 269.9 102.9 273.7 102.9 L 317.9 102.9 C 321.6 102.9 323 104.3 323 108.1 L 323 343.8 C 323 347.6 321.6 349 317.9 349 L 273.7 349 C 269.9 349 268.5 347.6 268.5 343.8 L 268.5 108.1 Z" fill="#333333"/>
			<g>
				<path d="M 218.9 132.9 C 218.9 132.4 219.3 132 219.8 132 L 250.7 132 C 251.2 132 251.6 132.4 251.6 132.9 L 251.6 134.7 C 251.6 135.2 251.2 135.6 250.7 135.6 L 219.8 135.6 C 219.3 135.6 218.9 135.2 218.9 134.7 L 218.9 132.9 Z" fill="#ffffff"/>
			</g>
			<g>
				<path d="M 218.9 149.9 C 218.9 149.4 219.3 149 219.8 149 L 250.7 149 C 251.2 149 251.6 149.4 251.6 149.9 L 251.6 151.7 C 251.6 152.2 251.2 152.6 250.7 152.6 L 219.8 152.6 C 219.3 152.6 218.9 152.2 218.9 151.7 L 218.9 149.9 Z" fill="#ffffff"/>
			</g>
			<g>
				<path d="M 280.6 132.9 C 280.6 132.4 281 132 281.5 132 L 312.4 132 C 312.9 132 313.3 132.4 313.3 132.9 L 313.3 134.7 C 313.3 135.2 312.9 135.6 312.4 135.6 L 281.5 135.6 C 281 135.6 280.6 135.2 280.6 134.7 L 280.6 132.9 Z" fill="#ffffff"/>
			</g>
			<g>
				<path d="M 280.6 149.9 C 280.6 149.4 281 149 281.5 149 L 312.4 149 C 312.9 149 313.3 149.4 313.3 149.9 L 313.3 151.7 C 313.3 152.2 312.9 152.6 312.4 152.6 L 281.5 152.6 C 281 152.6 280.6 152.2 280.6 151.7 L 280.6 149.9 Z" fill="#ffffff"/>
			</g>
			<g>
				<path d="M 158.2 128.1 C 158.3 127.6 158.8 127.2 159.3 127.4 L 190.1 134.2 C 190.6 134.3 190.9 134.8 190.8 135.4 L 190.4 137.2 C 190.3 137.8 189.8 138.1 189.3 138 L 158.6 131.1 C 158.1 131 157.8 130.5 157.9 130 L 158.2 128.1 Z" fill="#ffffff"/>
			</g>
			<g>
				<path d="M 155.2 145.1 C 155.3 144.6 155.7 144.3 156.2 144.4 L 186.1 151.3 C 186.6 151.4 186.9 151.9 186.8 152.4 L 186.4 154.2 C 186.3 154.6 185.8 154.9 185.3 154.8 L 155.6 148 C 155.1 147.9 154.8 147.4 154.9 146.9 L 155.2 145.1 Z" fill="#ffffff"/>
			</g>
		</g>
	</g>
</svg>