<?xml version="1.0" standalone="no"?>

<svg viewBox="0 0 50 50" style="background-color:#df1e62" version="1.1" xmlns="http://www.w3.org/2000/svg" xmlns:xlink="http://www.w3.org/1999/xlink" xml:space="preserve" x="0px" y="0px" width="100%" height="100%">
	<g id="Layer%201">
		<g id="About" visibility="hidden">
			<g id="about">
				<image id="about3" x="13" y="9" width="27" height="33" xlink:href="flash.svg.images/about2.png"/>
				<path id="Ellipse" d="M 19 14.5 C 19 10.9 22.1 8 26 8 C 29.9 8 33 10.9 33 14.5 C 33 18.1 29.9 21 26 21 C 22.1 21 19 18.1 19 14.5 Z" fill="#ffffff"/>
			</g>
			<image x="17" y="15" width="18" height="6" xlink:href="flash.svg.images/image1.png"/>
		</g>
		<g visibility="hidden">
			<image x="9" y="20" width="33" height="23" xlink:href="flash.svg.images/image2.png"/>
			<image x="20" y="2" width="10" height="16" xlink:href="flash.svg.images/image3.png"/>
		</g>
		<image id="Contact2" visibility="hidden" x="13" y="13" width="25" height="26" xlink:href="flash.svg.images/Contact1.png"/>
		<image id="twitter2" visibility="hidden" x="8" y="13" width="34" height="28" xlink:href="flash.svg.images/twitter1.png"/>
		<image id="Linked-in2" visibility="hidden" x="12" y="10" width="27" height="27" xlink:href="flash.svg.images/Linked-in1.png"/>
		<image id="pinterest2" visibility="hidden" x="13" y="10" width="26" height="33" xlink:href="flash.svg.images/pinterest1.png"/>
		<image id="Modenet2" visibility="hidden" x="10" y="10" width="31" height="31" xlink:href="flash.svg.images/Modenet1.png"/>
		<image id="home2" visibility="hidden" x="11" y="12" width="29" height="24" xlink:href="flash.svg.images/home1.png"/>
		<image id="git2" visibility="hidden" x="11" y="15" width="28" height="24" xlink:href="flash.svg.images/git1.png"/>
		<image id="games2" visibility="hidden" x="8" y="12" width="33" height="25" xlink:href="flash.svg.images/games1.png"/>
		<image id="sophia2" visibility="hidden" x="14" y="6" width="22" height="37" xlink:href="flash.svg.images/sophia1.png"/>
		<image id="flash2" visibility="hidden" x="13" y="9" width="23" height="31" xlink:href="flash.svg.images/flash1.png"/>
		<path d="M 35.5 14.5 C 32.5 16.5 31.5 15.1 28.2 22.1 C 30 22.1 30.2 22.1 32.9 22.1 L 32.9 26.5 C 31.4 26.5 29.5 26.5 27.5 26.5 C 23.3 32.9 20.6 36.2 13.5 39.5 C 13.5 37.5 13.5 35.5 13.5 33.5 C 25.8 28.8 21.5 12.5 35.5 9.5 L 35.5 14.5 Z" fill="#ffffff"/>
	</g>
</svg>