<?xml version="1.0" encoding="utf-8"?>
<!-- Generator: Adobe Illustrator 19.2.0, SVG Export Plug-In . SVG Version: 6.00 Build 0)  -->
<svg version="1.1" id="Untitled-Page_x25_201" xmlns="http://www.w3.org/2000/svg" xmlns:xlink="http://www.w3.org/1999/xlink"
	 x="0px" y="0px" viewBox="0 0 93.3 90.3" style="enable-background:new 0 0 93.3 90.3;" xml:space="preserve">
<style type="text/css">
	.st0{fill:none;}
	.st1{fill:#3F3F3F;stroke:#3F3F3F;stroke-width:2;}
	.st2{fill:none;stroke:#3F3F3F;stroke-width:2;}
</style>
<path class="st0" d="z"/>
<g id="Layer_x25_201">
	<g>
		<path class="st1" d="M21.9,36.2h39.3c0,11.9-1.6,19.8-11.8,27.8H33.7C24.1,57,21.9,48.1,21.9,36.2z"/>
		<path class="st1" d="M18.8,67.9h47.3c-4.1,4-4.1,2.3-14.2,3.8H33C22.8,70.5,22.8,71.8,18.8,67.9z"/>
		<path class="st2" d="M73.9,48.9c-1.6,4.7-5.7,7.5-9.2,6.3c-3.5-1.2-5.1-6-3.5-10.7c0,0,0,0,0,0c1.6-4.7,5.7-7.5,9.2-6.3
			C73.9,39.4,75.5,44.2,73.9,48.9C73.9,48.9,73.9,48.9,73.9,48.9z"/>
		<path class="st2" d="M38.3,12.4c5.5,9.4-8.6,6.6-3.7,16.1l0,0"/>
		<path class="st2" d="M43,13.8c5.4,9.1-8.8,6.3-3.7,16.1l0,0"/>
		<path class="st2" d="M48.2,15c5.5,9.4-8.6,6.6-3.7,16.1l0,0"/>
	</g>
</g>
<path class="st0" d="z"/>
</svg>
