<?xml version="1.0" standalone="no"?>
<!-- Generator: Adobe Fireworks 10, Export SVG Extension by Aaron Beall (http://fireworks.abeall.com) . Version: 0.6.1  -->
<!DOCTYPE svg PUBLIC "-//W3C//DTD SVG 1.1//EN" "http://www.w3.org/Graphics/SVG/1.1/DTD/svg11.dtd">
<svg id="Untitled-Page%201" viewBox="0 0 59 62" style="background-color:#ffffff00" version="1.1"
	xmlns="http://www.w3.org/2000/svg" xmlns:xlink="http://www.w3.org/1999/xlink" xml:space="preserve"
	x="0px" y="0px" width="59px" height="62px"
>
	<g id="Layer%201">
		<g>
			<path d="M 4.1797 25.1077 L 44.3896 25.1077 C 44.3896 37.1616 42.8008 45.1974 32.3267 53.2333 L 16.2427 53.2333 C 6.3455 46.1647 4.1797 37.1616 4.1797 25.1077 Z" stroke="#3f3f3f" stroke-width="2" fill="#3f3f3f"/>
			<path d="M 1 57.1616 L 49.4197 57.1616 C 45.231 61.1795 45.231 59.5031 34.8938 61 L 15.526 61 C 5.021 59.7733 5.021 61.1795 1 57.1616 Z" stroke="#3f3f3f" stroke-width="2" fill="#3f3f3f"/>
			<path d="M 57.3635 37.9708 C 55.7427 42.7255 51.5225 45.5918 47.9374 44.3725 C 44.3523 43.1532 42.7595 38.3102 44.3802 33.5556 C 44.3807 33.5532 44.3817 33.5507 44.3822 33.5488 C 46.0029 28.7941 50.2231 25.928 53.8088 27.1476 C 57.394 28.3669 58.9863 33.2098 57.366 37.965 C 57.3655 37.9669 57.3645 37.9689 57.3635 37.9708 Z" stroke="#3f3f3f" stroke-width="2" fill="none"/>
			<path d="M 20.9685 1 C 26.6379 10.5149 12.1467 7.705 17.2057 17.2658 L 17.2057 17.2658 " stroke="#3f3f3f" stroke-width="2" fill="none"/>
			<path d="M 25.7714 2.3652 C 31.2576 11.5731 16.7698 8.7301 22.0085 18.6308 L 22.0085 18.6308 " stroke="#3f3f3f" stroke-width="2" fill="none"/>
			<path d="M 31.1162 3.5997 C 36.7859 13.1147 22.2949 10.3047 27.3536 19.8655 L 27.3536 19.8655 " stroke="#3f3f3f" stroke-width="2" fill="none"/>
		</g>
	</g>
</svg>