<?xml version="1.0" standalone="no"?>
<!-- Generator: Adobe Fireworks 10, Export SVG Extension by Aaron Beall (http://fireworks.abeall.com) . Version: 0.6.1  -->
<!DOCTYPE svg PUBLIC "-//W3C//DTD SVG 1.1//EN" "http://www.w3.org/Graphics/SVG/1.1/DTD/svg11.dtd">
<svg id="Untitled-Page%201" viewBox="0 0 59 62" style="background-color:#ffffff00" version="1.1"
	xmlns="http://www.w3.org/2000/svg" xmlns:xlink="http://www.w3.org/1999/xlink" xml:space="preserve"
	x="0px" y="0px" width="59px" height="62px"
>
	<g id="Layer%201">
		<path d="M 55.1272 22.5142 C 54.319 19.9044 53.4362 16.0273 51.9496 13.7888 C 50.4602 11.5455 45.4375 9.1777 41.225 10.2784 C 39.4089 10.7529 38.0878 12.022 36.3591 12.4849 C 32.9214 13.4053 26.9768 13.3862 23.351 12.5851 C 21.4384 12.1626 20.2061 11.1396 18.3857 10.4788 C 14.1586 8.9446 8.3295 11.5481 6.8671 13.9893 C 5.6019 16.1006 4.7756 19.8444 3.9873 22.4138 C 3.1762 25.0559 2.2672 28.0166 1.5046 31.2395 C 0.9252 33.6888 0.0707 37.4026 0.0153 41.0681 C -0.055 45.7078 -0.0426 51.6053 3.7886 52 L 4.2849 52 C 6.3845 51.7577 7.8113 50.5444 9.151 49.1918 C 12.3597 45.9507 14.8492 42.0947 18.9817 40.0653 C 21.9365 38.6136 25.3378 38.6609 29.309 38.6609 C 32.9952 38.6609 37.2401 38.6564 39.9342 39.8646 C 42.6919 41.1012 44.9232 43.5344 46.8851 45.7817 C 48.7946 47.969 51.5106 51.2458 54.6306 52 L 55.2264 52 C 58.689 51.8395 59 46.623 59 42.4722 C 59 34.6711 56.9775 28.4879 55.1272 22.5142 ZM 12.2999 23.1543 C 9.8959 23.1543 7.9467 21.1859 7.9467 18.7576 C 7.9467 16.3293 9.8959 14.361 12.2999 14.361 C 14.7043 14.361 16.6533 16.3293 16.6533 18.7576 C 16.6533 21.1859 14.7043 23.1543 12.2999 23.1543 ZM 20.4792 33.8644 C 17.7643 33.8644 15.5632 31.6414 15.5632 28.8992 C 15.5632 26.1571 17.7643 23.9341 20.4792 23.9341 C 23.1943 23.9341 25.3953 26.1571 25.3953 28.8992 C 25.3953 31.6414 23.1943 33.8644 20.4792 33.8644 ZM 46.2886 12.8229 C 47.4856 12.8229 48.4561 13.8029 48.4561 15.0118 C 48.4561 16.2207 47.4856 17.2009 46.2886 17.2009 C 45.0916 17.2009 44.1212 16.2207 44.1212 15.0118 C 44.1212 13.8029 45.0916 12.8229 46.2886 12.8229 ZM 37.9314 33.2131 C 35.6973 33.2131 33.8862 31.3839 33.8862 29.1276 C 33.8862 26.8713 35.6973 25.0422 37.9314 25.0422 C 40.1655 25.0422 41.9764 26.8713 41.9764 29.1276 C 41.9764 31.3839 40.1655 33.2131 37.9314 33.2131 ZM 41.9764 21.5914 C 40.7794 21.5914 39.8093 20.6112 39.8093 19.4023 C 39.8093 18.1934 40.7794 17.2134 41.9764 17.2134 C 43.1735 17.2134 44.1438 18.1934 44.1438 19.4023 C 44.1438 20.6112 43.1735 21.5914 41.9764 21.5914 ZM 46.3165 25.9695 C 45.1191 25.9695 44.149 24.9895 44.149 23.7806 C 44.149 22.5715 45.1191 21.5914 46.3165 21.5914 C 47.5131 21.5914 48.4836 22.5715 48.4836 23.7806 C 48.4836 24.9895 47.5131 25.9695 46.3165 25.9695 ZM 50.66 21.5895 C 49.463 21.5895 48.4926 20.6094 48.4926 19.4005 C 48.4926 18.1915 49.463 17.2113 50.66 17.2113 C 51.8569 17.2113 52.8273 18.1915 52.8273 19.4005 C 52.8273 20.6094 51.8569 21.5895 50.66 21.5895 Z" fill="#3f3f3f"/>
	</g>
</svg>