<?xml version="1.0" standalone="no"?>
<!-- Generator: Adobe Fireworks 10, Export SVG Extension by Aaron Beall (http://fireworks.abeall.com) . Version: 0.6.1  -->
<!DOCTYPE svg PUBLIC "-//W3C//DTD SVG 1.1//EN" "http://www.w3.org/Graphics/SVG/1.1/DTD/svg11.dtd">
<svg id="mne-icon.fw-Page%201" viewBox="0 0 58 117" style="background-color:#ffffff00" version="1.1"
	xmlns="http://www.w3.org/2000/svg" xmlns:xlink="http://www.w3.org/1999/xlink" xml:space="preserve"
	x="0px" y="0px" width="58px" height="117px"
>
	<g>
		<path d="M 18 12 C 18 5.9248 22.9248 1 29 1 C 35.0752 1 40 5.9248 40 12 C 40 18.0752 35.0752 23 29 23 C 22.9248 23 18 18.0752 18 12 ZM 1 72 C 1 72 -0.1667 55.5 4 47 C 4 47 5.1667 33.6667 16 27 L 40 27 C 40 27 52.5 31 55 47 C 55 47 57 55.6667 57 59 L 58 73 C 58 73 54.1667 76.3333 50 73 L 51 66 L 52 62 L 51 52 C 51 52 50.478 46.5612 48.5 42.9375 C 47.9719 41.9699 47.125 41.5625 47.375 42.125 C 47.375 42.125 50.8333 53.3333 50 56 C 49.1667 58.6667 50.3333 62.5 47 67 C 47 67 44.1667 107.3333 42 112 C 42 112 37 120.3333 31 112 L 31 79 L 28 79 L 28 113 C 28 113 22.6667 120 16 113 L 11 69 C 11 69 7.8333 63 8 55 C 8 55 8.0208 49.5625 11.6875 43.0625 L 11.4375 42.375 C 11.4375 42.375 6.5 49 7 56 C 7.5 63 7 65.5 8 68 C 9 70.5 5.3333 76.8333 1 72 Z" fill="#555555"/>
		<g>
			<path d="M 8.005 49.125 C 9.3265 45.2063 11.4375 42.375 11.4375 42.375 L 11.6875 43.0625 C 9.256 47.3729 8.4271 51.2149 8.145 53.315 L 8.38 60.445 C 8.5865 61.7495 8.625 63.25 9.145 64 C 18.1569 76.9979 45.75 72.625 48.67 64 C 49.8149 60.6183 49.3588 58.0519 50 56 C 50.8333 53.3333 47.375 42.125 47.375 42.125 C 47.125 41.5625 47.9719 41.9699 48.5 42.9375 C 49.3285 44.4554 49.9037 46.2933 50.29 47.915 C 50.9971 47.7029 52.9075 47.1318 54.925 46.55 C 51.6667 29.1667 39.8333 26.5 39.8333 26.5 L 18.6667 26.1667 C 7 30.6667 4.458 43.6895 4.075 46.385 L 8 49 L 8.005 49.125 Z" fill="#000000"/>
			<path d="M 41 37.1937 L 39.9466 38.3119 L 38.4502 36.6612 L 38.4502 42.2524 L 38.8145 42.6357 L 39.9466 41.4004 L 40.9605 42.4759 L 38.8933 44.7018 L 37.0622 42.7315 L 37.0622 37.0765 L 38.9918 35 L 41 37.1937 L 41 37.1937 ZM 34.6739 42.0714 L 34.6739 37.6517 L 33.463 36.3843 L 33.463 43.3386 L 34.6739 42.0714 L 34.6739 42.0714 ZM 36.0619 42.9233 L 34.4376 44.7018 L 32.5771 44.7018 L 31.4843 43.4876 L 32.0748 42.8594 L 32.0748 36.8635 L 31.4745 36.2139 L 32.5771 35.0212 L 34.4376 35.0212 L 36.0619 36.7997 L 36.0619 42.9233 L 36.0619 42.9233 ZM 31.1419 39.526 L 27.5092 45 L 28.7792 41.0383 L 27.5092 41.0383 L 29.1631 36.9276 L 30.7283 36.9276 L 29.8423 39.526 L 31.1419 39.526 L 31.1419 39.526 ZM 26.4851 37.1937 L 25.4317 38.3119 L 23.9353 36.6612 L 23.9353 42.2524 L 24.2996 42.6357 L 25.4317 41.4004 L 26.4457 42.4759 L 24.3784 44.7018 L 22.5473 42.7315 L 22.5473 37.0765 L 24.4769 35 L 26.4851 37.1937 L 26.4851 37.1937 ZM 20.16 39.92 L 20.16 37.9712 L 18.9491 36.6612 L 18.9491 39.92 L 20.16 39.92 L 20.16 39.92 ZM 22.1092 43.3386 L 20.8491 44.7018 L 19.5988 43.3386 L 20.16 42.7315 L 20.16 41.4856 L 18.9491 41.4856 L 18.9491 42.7315 L 19.5103 43.3386 L 18.2502 44.7018 L 17 43.3386 L 17.561 42.7315 L 17.561 37.2364 L 19.6382 35.0105 L 21.5481 37.0765 L 21.5481 42.7315 L 22.1092 43.3386 L 22.1092 43.3386 Z" fill="#ffffff"/>
		</g>
		<path d="M 18 13 L 18.25 13 L 23 21 L 26 17.5 C 26 17.5 25.4583 20.3333 26.3333 21.8333 C 27.2083 23.3333 30.7917 23.2917 32.1667 21.3333 C 33.5417 19.375 32.25 17.75 32.25 17.75 L 34.875 22 L 38 17 L 40 12 C 40 12 39.75 10.75 40 12 C 40.25 13.25 41.0456 15.177 40 18 C 38.75 21.375 38.75 20.875 37 23 C 35.8762 24.3646 34 25 34 25 L 29 25 L 26 25 C 26 25 25 25.5 23 24 C 21 22.5 20 21 20 21 C 20 21 18.5 16 18 16 C 17.5 16 18 13 18 13 Z" fill="#000000"/>
		<path d="M 21.0836 11.4131 L 21 10.3681 C 21 10.3681 23.1322 9.8382 25.6526 10.0499 C 27.7183 10.2234 28.6022 10.934 29.4555 10.9134 C 30.2933 10.8933 31.6862 10.131 33.2654 10.0499 C 35.867 9.9165 38 10.3681 38 10.3681 L 37.8652 11.4585 C 37.8652 11.4585 37.4955 11.4847 37.3535 12.0941 C 37.2466 12.5528 37.2002 13.1986 37.0457 13.8179 C 36.9388 14.2465 36.7719 14.6617 36.531 14.996 C 36.0362 15.6827 35.2443 15.9468 34.5409 15.992 C 33.9017 16.0332 32.1242 15.8714 31.3388 14.9507 C 31.0335 14.5928 30.7551 14.1608 30.5844 13.7272 C 30.3238 13.0653 30.2018 12.3312 29.9159 12.0033 C 29.7981 11.8681 29.638 11.8699 29.4516 11.8671 C 29.3158 11.8651 29.1975 11.8439 29.1133 11.9125 C 28.883 12.1003 28.7392 12.7566 28.5162 13.3645 C 28.3208 13.8971 28.0473 14.452 27.7085 14.8601 C 26.8164 15.9348 25.2103 16.0353 24.4975 15.992 C 23.7674 15.9477 23.0527 15.7562 22.3469 14.8601 C 21.7425 14.0926 21.8016 12.7854 21.6324 12.0487 C 21.5106 11.5184 21.0836 11.4131 21.0836 11.4131 L 21.0836 11.4131 Z" fill="#000000"/>
		<path d="M 37.1726 10.7298 C 37.417 10.75 37.6077 10.8224 37.6167 10.9004 C 37.6253 10.975 37.3957 11.0227 37.1714 11.0062 C 36.9269 10.9881 36.7345 10.9248 36.7273 10.8356 C 36.7212 10.7606 36.9274 10.7096 37.1726 10.7298 L 37.1726 10.7298 Z" fill="#000000"/>
		<path d="M 21.803 10.7317 C 22.0474 10.709 22.247 10.7473 22.268 10.8225 C 22.2882 10.8946 22.0691 10.9816 21.845 11.0043 C 21.6009 11.029 21.4011 11 21.38 10.9134 C 21.3623 10.8406 21.5578 10.7544 21.803 10.7317 L 21.803 10.7317 Z" fill="#000000"/>
		<path d="M 18 12.5244 L 18.25 12.5244 L 23 4.5244 L 25.125 5.625 L 25.75 2.125 L 33 2.375 L 33.125 5.25 L 34.875 3.5244 L 38 8.5244 L 40 13.5244 C 40 13.5244 39.75 14.7744 40 13.5244 C 40.25 12.2744 41.0456 10.3474 40 7.5244 C 38.75 4.1494 38.75 4.6494 37 2.5244 C 35.8762 1.1599 34 0.5244 34 0.5244 L 29 0.5244 L 26 0.5244 C 26 0.5244 25 0.0244 23 1.5244 C 21 3.0244 20 4.5244 20 4.5244 C 20 4.5244 18.5 9.5244 18 9.5244 C 17.5 9.5244 18 12.5244 18 12.5244 Z" fill="#000000"/>
	</g>
</svg>