<?xml version="1.0" standalone="no"?>
<!-- Generator: Adobe Fireworks 10, Export SVG Extension by Aaron Beall (http://fireworks.abeall.com) . Version: 0.6.1  -->
<!DOCTYPE svg PUBLIC "-//W3C//DTD SVG 1.1//EN" "http://www.w3.org/Graphics/SVG/1.1/DTD/svg11.dtd">
<svg id="usb-heart.fw-Page%201" viewBox="0 0 240 240" style="background-color:#ffffff" version="1.1"
	xmlns="http://www.w3.org/2000/svg" xmlns:xlink="http://www.w3.org/1999/xlink" xml:space="preserve"
	x="0px" y="0px" width="240px" height="240px"
>
	<defs>
		<linearGradient id="gradient1" x1="58.9401%" y1="29.7759%" x2="17.7057%" y2="93.1584%">
			<stop stop-color="#9d3702" stop-opacity="1" offset="0.5556%"/>
			<stop stop-color="#ca4200" stop-opacity="1" offset="75.5556%"/>
			<stop stop-color="#aa3d02" stop-opacity="1" offset="98.8889%"/>
		</linearGradient>
		<linearGradient id="gradient2" x1="66.6766%" y1="17.2677%" x2="56.0304%" y2="46.8048%">
			<stop stop-color="#be4503" stop-opacity="1" offset="0.5556%"/>
			<stop stop-color="#9d3702" stop-opacity="1" offset="98.8889%"/>
		</linearGradient>
		<linearGradient id="gradient3" x1="-0.6095%" y1="49.9979%" x2="99.2386%" y2="49.9979%">
			<stop stop-color="#ffffff" stop-opacity="1" offset="1%"/>
			<stop stop-color="#acacac" stop-opacity="1" offset="45%"/>
			<stop stop-color="#ffffff" stop-opacity="1" offset="99%"/>
		</linearGradient>
		<linearGradient id="gradient4" x1="643.0707%" y1="355.4648%" x2="15755.3485%" y2="8144.1167%">
			<stop stop-color="#9c0000" stop-opacity="1" offset="1%"/>
			<stop stop-color="#ff1010" stop-opacity="1" offset="45%"/>
			<stop stop-color="#a50400" stop-opacity="1" offset="99%"/>
		</linearGradient>
		<linearGradient id="gradient5" x1="1.8911%" y1="29.7144%" x2="98.1084%" y2="70.1979%">
			<stop stop-color="#ffffff" stop-opacity="1" offset="1%"/>
			<stop stop-color="#b9b9b9" stop-opacity="1" offset="45%"/>
			<stop stop-color="#ffffff" stop-opacity="1" offset="99%"/>
		</linearGradient>
	</defs>
	<g id="Layer%201">
		<g id="Untitled-1">
			<path d="M -2 0 L 240 0 L 240 240 L -2 240 L -2 0 Z" fill="#d6d6d6"/>
		</g>
		<g>
			<path d="M 204.9119 100.1316 C 203.7848 98.0995 203.109 96.1805 202.6578 94.713 C 199.1644 88.5038 194.8818 82.1822 190.149 75.6345 C 175.7252 57.7987 160.8501 48.203 145.7494 46.8485 C 143.7209 46.6224 141.9181 46.397 140.2286 46.397 C 135.1568 46.2839 130.762 47.5255 127.043 49.7835 C 119.8316 52.7186 114.1969 57.2342 110.0271 63.4428 C 95.7155 55.3152 82.7566 50.5735 71.1493 49.219 C 64.726 48.316 59.5426 48.429 55.8235 49.445 C 42.9769 52.1541 35.3143 59.0402 32.9479 69.8774 C 32.8351 70.2165 32.7223 70.555 32.7223 71.0065 L 32.4972 72.1355 C 31.9336 76.1991 31.9336 80.7147 32.7223 85.7948 C 32.9479 89.0683 33.6242 92.5679 34.9764 96.1805 C 35.2014 96.745 35.5399 97.3095 35.8778 97.874 C 35.9906 98.3256 36.1034 98.8895 36.3285 99.454 C 37.4555 101.5991 38.8077 103.9697 40.6111 106.5662 C 50.3022 121.58 65.1773 134.2232 85.0102 144.3835 C 96.9554 150.3672 109.1257 155.6728 121.6344 160.7523 C 128.17 163.3489 134.819 165.9455 141.6935 168.316 C 141.9181 168.4285 142.0314 168.4285 142.1437 168.542 C 142.5949 168.767 143.1585 168.8805 143.4964 168.993 L 176.2887 179.1532 C 176.0631 178.7012 177.0631 178.3627 177.2887 178.3627 C 181.7958 171.2511 185.5297 164.4779 190.3747 158.0433 C 194.9951 150.0276 199.6156 142.239 204.1227 134.5628 C 209.0811 123.8381 209.3067 112.2103 204.9119 100.1316 Z" fill="url(#gradient1)"/>
			<path d="M 188.1354 78.6506 C 183.6272 71.3129 177.7674 65.2173 170.556 60.4757 C 163.3435 55.7346 157.3715 52.7996 152.8633 51.6705 C 148.2428 50.5415 145.4263 50.09 144.5248 50.203 C 134.4947 49.9775 125.3672 53.2511 117.0287 59.7987 C 118.8316 59.3472 120.9723 59.3472 123.3387 59.3472 C 144.975 66.5718 164.4706 76.8445 181.7121 90.0523 L 182.0499 88.9238 L 196.4738 101.2286 C 196.2493 100.7771 195.9102 100.438 195.6857 99.9865 C 190.5017 91.9719 189.149 88.2463 191.4031 88.8108 C 193.7695 89.4883 192.6425 86.1012 188.1354 78.6506 Z" fill="url(#gradient2)"/>
			<path d="M 177.2887 179.1532 L 144.4964 167.8639 C 144.1585 167.6379 143.7072 167.5255 143.1437 167.413 C 143.0314 167.2994 142.9181 167.2994 142.6935 167.187 C 135.9312 164.8164 129.2834 162.3323 122.6344 159.6233 C 110.1257 154.6562 98.0682 149.2381 86.0102 143.368 C 66.0645 133.2078 51.1894 120.451 41.4983 105.5502 C 39.6949 102.9536 38.2299 100.5831 37.2157 98.438 C 36.9906 97.874 36.765 97.3095 36.765 96.858 C 36.4271 96.2935 36.0892 95.729 35.8635 95.1645 C 34.5114 91.4394 33.7223 87.9398 33.61 84.7788 C 32.8208 79.6986 32.8208 75.183 33.3844 71.1195 L 33.61 69.9904 C 33.7223 69.5389 33.8351 69.2004 33.8351 68.8614 C 23.3548 97.874 25.6089 121.806 40.7091 140.433 C 42.5119 142.6899 44.4281 144.8355 46.231 146.6416 L 54.6828 138.6258 L 56.1477 137.6104 C 67.3038 143.368 78.4598 149.2381 89.7292 154.9947 L 89.7292 154.9947 L 88.1515 165.2674 L 82.8552 170.2345 C 91.0814 173.5091 99.8711 176.2182 109.4499 178.2502 C 140.3261 184.7973 162.8649 185.8139 177.2887 179.1532 Z" fill="#9d3702"/>
			<path d="M 113.0556 163.5749 C 109.3371 162.1074 105.618 160.6399 102.0124 159.0588 L 100.8853 159.7358 L 99.646 171.3635 L 113.8447 163.4613 C 113.5063 163.4613 113.0556 163.5749 113.0556 163.5749 Z" fill="#999999"/>
			<path d="M 114.9712 163.9134 C 114.6334 163.6874 114.2955 163.5749 113.8447 163.3489 L 99.646 171.2511 C 115.9855 177.2336 128.4942 180.5072 137.0583 181.1853 L 138.8611 171.025 C 136.7204 170.5741 134.5796 170.0096 132.4378 169.445 L 129.0577 172.1541 C 128.7198 172.4926 128.2686 172.605 127.9307 172.605 C 127.5928 172.605 127.2549 172.3801 127.0293 172.1541 C 126.8036 171.8156 126.6914 171.4771 126.8036 171.025 C 126.917 170.6865 127.1415 170.2345 127.4794 169.896 L 129.2834 168.4285 C 127.705 167.9775 126.2401 167.5255 124.7752 167.0745 L 121.8453 169.445 C 121.5074 169.67 121.1695 169.7835 120.7182 169.7835 C 120.3803 169.7835 119.9302 169.5575 119.7045 169.445 C 119.4789 169.1066 119.3666 168.767 119.4789 168.316 C 119.5923 167.8639 119.8168 167.5255 120.1547 167.187 L 121.3951 166.0579 C 122.1832 166.284 122.8601 166.3964 123.5359 166.51 C 120.7182 166.0579 117.7889 165.0424 114.9712 163.9134 Z" fill="url(#gradient3)"/>
			<path d="M 120.7182 170.122 C 121.1695 170.122 121.5074 169.896 121.8453 169.7835 L 124.7752 167.2994 L 124.8885 167.187 C 124.5506 167.0745 124.2116 166.9609 123.6481 166.9609 C 122.9723 166.7349 122.1832 166.6224 121.5074 166.51 L 120.2681 167.6379 C 119.9302 167.8639 119.7045 168.316 119.5923 168.767 C 119.4789 169.1066 119.5923 169.445 119.8168 169.896 C 119.9302 170.0096 120.3803 170.122 120.7182 170.122 ZM 129.3956 168.4285 L 129.17 168.6545 L 127.4794 170.122 C 127.1415 170.4605 126.917 170.799 126.8036 171.2511 C 126.6914 171.702 126.8036 172.0416 127.0293 172.3801 C 127.2549 172.605 127.5928 172.831 127.9307 172.831 C 128.382 172.831 128.7198 172.605 129.0577 172.3801 L 132.4378 169.67 L 132.6634 169.445 C 131.5364 169.1066 130.5227 168.767 129.3956 168.4285 Z" fill="#949a94"/>
			<path d="M 33.61 168.4285 L 33.4972 168.993 L 67.5294 186.4909 L 67.7545 185.3618 L 69.783 175.2016 L 69.783 175.0891 L 69.5579 174.9767 L 41.7233 160.5263 L 33.61 168.4285 ZM 41.6105 168.8805 C 41.6105 168.4285 41.8361 168.2024 42.0612 167.8639 L 45.5547 164.5904 L 48.0338 165.9455 L 43.7518 169.896 C 43.5262 170.122 43.1883 170.2345 42.7376 170.2345 C 42.2869 170.2345 42.0612 170.0096 41.8361 169.7835 C 41.6105 169.67 41.6105 169.3315 41.6105 168.8805 ZM 54.6828 169.3315 L 50.4002 173.5091 C 50.1751 173.7341 49.8372 173.8476 49.3865 173.7341 C 48.9353 173.7341 48.7102 173.5091 48.4845 173.2831 C 48.2595 173.0571 48.0338 172.7186 48.1467 172.3801 C 48.1467 171.928 48.3723 171.702 48.5974 171.3635 L 52.2036 167.8639 L 54.6828 169.3315 ZM 68.0929 176.3306 L 63.8104 180.2823 C 63.5853 180.5072 63.2468 180.6208 62.7961 180.6208 C 62.3454 180.6208 62.1203 180.3947 61.7819 180.1687 C 61.5568 179.9438 61.444 179.6042 61.444 179.1532 C 61.444 178.7012 61.6696 178.4762 61.8947 178.2502 L 65.3881 174.9767 L 68.0929 176.3306 ZM 58.4013 171.2511 L 60.8805 172.605 L 56.5984 176.6691 C 56.3728 176.8951 56.0349 177.0087 55.5842 177.0087 C 55.1335 176.8951 54.9079 176.7827 54.57 176.5567 C 54.3443 176.2182 54.2321 175.8797 54.2321 175.5412 C 54.2321 175.0891 54.4571 174.8631 54.6828 174.6371 L 58.4013 171.2511 Z" fill="#cccccc"/>
			<path d="M 41.6105 168.8805 C 41.6105 169.3315 41.7233 169.67 41.949 169.896 C 42.174 170.122 42.3997 170.348 42.8504 170.348 C 43.3011 170.348 43.639 170.2345 43.8646 170.0096 L 48.1467 166.0579 L 45.6675 164.7029 L 42.174 167.9775 C 41.7233 168.2024 41.6105 168.4285 41.6105 168.8805 Z" fill="#949a94"/>
			<path d="M 54.6828 169.3315 L 52.2036 167.9775 L 48.5974 171.4771 C 48.3723 171.702 48.1467 172.0416 48.1467 172.4926 C 48.0338 172.831 48.2595 173.1695 48.4845 173.3956 C 48.7102 173.6216 48.9353 173.8476 49.3865 173.8476 C 49.8372 173.9601 50.1751 173.8476 50.4002 173.6216 L 54.6828 169.3315 Z" fill="#949a94"/>
			<path d="M 68.0929 176.3306 L 65.5009 174.9767 L 62.0075 178.2502 C 61.7819 178.4762 61.5568 178.8147 61.5568 179.1532 C 61.5568 179.4917 61.6696 179.9438 61.8947 180.1687 C 62.1203 180.3947 62.3454 180.6208 62.9089 180.6208 C 63.3596 180.6208 63.6981 180.5072 63.9232 180.2823 L 68.0929 176.3306 Z" fill="#949a94"/>
			<path d="M 58.4013 171.2511 L 54.7956 174.6371 C 54.57 174.8631 54.3443 175.0891 54.3443 175.5412 C 54.3443 175.8797 54.4571 176.2182 54.6828 176.5567 C 54.9079 176.7827 55.1335 176.8951 55.697 177.0087 C 56.1477 177.0087 56.4856 176.8951 56.7113 176.6691 L 60.9933 172.605 L 58.4013 171.2511 ZM 35.9764 157.5912 L 35.7507 157.8173 L 33.61 168.542 L 41.8361 160.7523 L 35.9764 157.5912 Z" fill="#949a94"/>
			<path d="M 35.7507 157.7048 L 35.9764 157.4788 L 35.7507 157.4788 L 35.7507 157.7048 Z" fill="url(#gradient4)"/>
			<path d="M 35.9764 157.5912 L 41.8361 160.6399 L 69.5579 174.9767 L 89.7292 156.1237 C 78.5727 150.2536 67.4166 144.4959 56.2605 138.7394 L 54.7956 139.6424 L 46.3438 147.657 L 35.9764 157.5912 ZM 67.6422 155.4467 L 68.0929 155.2207 L 76.0935 159.3973 L 71.3607 163.9134 L 63.2468 159.6233 L 67.6422 155.4467 ZM 62.9089 152.7377 L 58.0634 157.2527 L 50.0623 153.0762 L 54.57 148.7861 L 54.9079 148.56 L 62.9089 152.7377 Z" fill="url(#gradient5)"/>
			<path d="M 67.6422 155.4467 L 63.2468 159.7358 L 71.3607 164.0259 L 76.0935 159.5108 L 68.0929 155.3343 L 67.6422 155.4467 Z" fill="#666666"/>
			<path d="M 62.9089 152.7377 L 54.9079 148.56 L 54.57 148.7861 L 50.0623 153.0762 L 58.0634 157.2527 L 62.9089 152.7377 Z" fill="#666666"/>
			<path d="M 89.8415 156.1237 L 89.8415 156.1237 L 69.6702 174.9767 L 69.6702 174.9767 L 69.6702 174.9767 L 67.6422 186.1524 L 82.9675 171.3635 L 88.2643 166.3964 L 89.8415 156.1237 Z" fill="#979896"/>
			<path d="M 35.9764 157.5912 L 69.5579 174.9767 L 69.2194 177.6857 L 35.3 160.6399 L 35.9764 157.5912 L 35.9764 157.5912 Z" fill="#0748e8"/>
		</g>
	</g>
</svg>