<?xml version="1.0" standalone="no"?>

<svg viewBox="0 0 240 240" style="background-color:#e4e4e4" version="1.1" xmlns="http://www.w3.org/2000/svg" xmlns:xlink="http://www.w3.org/1999/xlink" xml:space="preserve" x="0px" y="0px" width="100%" height="100%">
	<defs>
		<radialGradient id="gradient1" cx="48.3%" cy="45%" r="43.4%">
			<stop stop-color="#333333" stop-opacity="1" offset="0%"/>
			<stop stop-color="#333333" stop-opacity="0" offset="97.8%"/>
			<stop stop-color="#333333" stop-opacity="0" offset="100%"/>
		</radialGradient>
		<linearGradient id="gradient2" x1="69%" y1="11.9%" x2="23.9%" y2="73.3%">
			<stop stop-color="#aa3d02" stop-opacity="1" offset="0%"/>
			<stop stop-color="#752504" stop-opacity="1" offset="100%"/>
		</linearGradient>
		<linearGradient id="gradient3" x1="79.1%" y1="1.9%" x2="49%" y2="103.1%">
			<stop stop-color="#9d3500" stop-opacity="1" offset="0%"/>
			<stop stop-color="#652001" stop-opacity="1" offset="100%"/>
		</linearGradient>
	</defs>
	<g id="Background">
		<g>
			<path id="Ellipse" d="M 72.5 192.7 C 72.5 183.2 93.2 175.5 118.6 175.5 C 144 175.5 164.6 183.2 164.6 192.7 C 164.6 202.3 144 210 118.6 210 C 93.2 210 72.5 202.3 72.5 192.7 Z" fill="url(#gradient1)"/>
			<path d="M 83.5 133.1 C 83.5 166 98.8 192.7 117.8 192.7 C 136.8 192.7 152.1 166 152.1 133.1 C 152.1 105.2 141.1 81.8 126.2 75.3 C 134.9 73.3 141.2 68.1 141.2 62 C 141.2 56 135.3 50.9 126.9 48.8 L 135.7 37.9 L 140 36.2 C 145.7 44 149.4 42.4 149.4 42.4 C 149.4 42.4 154.6 38.2 143.1 33 C 134.4 29 128.1 42.1 125.6 48.5 C 123.4 48.1 121 47.8 118.6 47.8 C 115.5 47.8 112.5 48.2 109.8 48.9 C 108.5 45.2 101.6 26 91.3 30.7 C 79.8 36 85 40.2 85 40.2 C 85 40.2 88.7 41.7 94.4 33.9 L 98.7 35.6 L 109.5 49 C 101.5 51.2 96 56.2 96 62 C 96 67.9 101.8 72.9 110 75 C 94.8 81.2 83.5 104.8 83.5 133.1 Z" fill="#17181a"/>
			<g>
				<path d="M 58.5 130 C 58.5 163.6 81.1 191.3 110.3 195.4 L 119.4 170.8 L 123 195.6 C 153.3 192.7 177.1 164.4 177.1 130 C 177.1 93.6 150.5 64.1 117.8 64.1 C 85 64.1 58.5 93.6 58.5 130 Z" fill="url(#gradient2)"/>
				<path d="M 75.8 176.5 C 84.9 186.6 96.9 193.5 110.3 195.4 L 119.4 170.8 L 123 195.6 C 153.3 192.7 177.1 164.4 177.1 130 C 177.1 111.2 170 94.3 158.7 82.3 C 146.4 88.5 134.5 96.4 123.4 106.1 C 100.4 126.3 84.3 151 75.8 176.5 Z" fill="url(#gradient3)"/>
			</g>
			<g>
				<path id="Ellipse2" d="M 86.6 92.3 C 86.6 89.7 88.7 87.6 91.3 87.6 C 93.9 87.6 96 89.7 96 92.3 C 96 94.9 93.9 97 91.3 97 C 88.7 97 86.6 94.9 86.6 92.3 Z" fill="#ffffff"/>
				<path id="Ellipse3" d="M 127.1 99.4 C 127.1 94.2 131.3 89.9 136.5 89.9 C 141.6 89.9 145.8 94.2 145.8 99.4 C 145.8 104.6 141.6 108.8 136.5 108.8 C 131.3 108.8 127.1 104.6 127.1 99.4 Z" fill="#ffffff"/>
				<path id="Ellipse4" d="M 77.2 154.3 C 77.2 147.8 82.5 142.5 88.9 142.5 C 95.4 142.5 100.6 147.8 100.6 154.3 C 100.6 160.8 95.4 166.1 88.9 166.1 C 82.5 166.1 77.2 160.8 77.2 154.3 Z" fill="#ffffff"/>
				<path d="M 175.5 148.7 C 177.1 142.8 177.5 136.6 177.5 130.2 C 177.5 126.7 177.7 122.7 176.6 119.4 C 175.1 118.8 173.3 119 171.6 119 C 163.4 119 156.8 125.7 156.8 133.9 C 156.8 142.1 163.4 148.8 171.6 148.8 C 172.7 148.8 174.5 148.9 175.5 148.7 Z" fill="#ffffff"/>
				<path id="Ellipse5" d="M 125.4 139.7 C 125.4 136.7 127.8 134.2 130.8 134.2 C 133.9 134.2 136.3 136.7 136.3 139.7 C 136.3 142.7 133.9 145.2 130.8 145.2 C 127.8 145.2 125.4 142.7 125.4 139.7 Z" fill="#ffffff"/>
				<path id="Ellipse6" d="M 135 167.6 C 135 160.7 140.6 155.1 147.4 155.1 C 154.3 155.1 159.9 160.7 159.9 167.6 C 159.9 174.6 154.3 180.2 147.4 180.2 C 140.6 180.2 135 174.6 135 167.6 Z" fill="#ffffff"/>
				<path id="Ellipse7" d="M 72.5 115.1 C 72.5 112 75 109.6 78 109.6 C 81 109.6 83.5 112 83.5 115.1 C 83.5 118.1 81 120.6 78 120.6 C 75 120.6 72.5 118.1 72.5 115.1 Z" fill="#ffffff"/>
			</g>
			<path id="Line" d="M 118.3 64.2 L 118.3 175.8 " stroke="#000000" stroke-width="1" fill="none"/>
		</g>
	</g>
	<g id="Layer%201">
	</g>
</svg>