<?xml version="1.0" encoding="utf-8"?>
<!-- Generator: Adobe Illustrator 19.2.1, SVG Export Plug-In . SVG Version: 6.00 Build 0)  -->
<svg version="1.1" id="usb-heart.fw-Page_x25_201" xmlns="http://www.w3.org/2000/svg" xmlns:xlink="http://www.w3.org/1999/xlink"
	 x="0px" y="0px" viewBox="0 0 240 240" style="enable-background:new 0 0 240 240;" xml:space="preserve">
<style type="text/css">
	.st0{fill:none;}
	.st1{fill:url(#SVGID_1_);}
	.st2{fill:url(#SVGID_2_);}
	.st3{fill:#9D3702;}
	.st4{fill:#999999;}
	.st5{fill:url(#SVGID_3_);}
	.st6{fill:#949A94;}
	.st7{fill:#CCCCCC;}
	.st8{fill:url(#SVGID_4_);}
	.st9{fill:url(#SVGID_5_);}
	.st10{fill:#666666;}
	.st11{fill:#979896;}
	.st12{fill:#0748E8;}
</style>
<path class="st0" d="z"/>
<g id="Layer_x25_201">
	<g>
		
			<linearGradient id="SVGID_1_" gradientUnits="userSpaceOnUse" x1="-183.3584" y1="514.6305" x2="-183.7708" y2="513.9966" gradientTransform="matrix(175.936 0 0 -132.7633 32395.2539 68410.0156)">
			<stop  offset="5.556000e-03" style="stop-color:#9D3702"/>
			<stop  offset="0.7556" style="stop-color:#CA4200"/>
			<stop  offset="0.9889" style="stop-color:#AA3D02"/>
		</linearGradient>
		<path class="st1" d="M204.9,100.1c-1.1-2-1.8-4-2.3-5.4c-3.5-6.2-7.8-12.5-12.5-19.1c-14.4-17.8-29.3-27.4-44.4-28.8
			c-2-0.2-3.8-0.5-5.5-0.5c-5.1-0.1-9.5,1.1-13.2,3.4c-7.2,2.9-12.8,7.5-17,13.7c-14.3-8.1-27.3-12.9-38.9-14.2
			c-6.4-0.9-11.6-0.8-15.3,0.2C43,52.2,35.3,59,32.9,69.9c-0.1,0.3-0.2,0.7-0.2,1.1l-0.2,1.1c-0.6,4.1-0.6,8.6,0.2,13.7
			c0.2,3.3,0.9,6.8,2.3,10.4c0.2,0.6,0.6,1.1,0.9,1.7c0.1,0.5,0.2,1,0.5,1.6c1.1,2.1,2.5,4.5,4.3,7.1c9.7,15,24.6,27.7,44.4,37.8
			c11.9,6,24.1,11.3,36.6,16.4c6.5,2.6,13.2,5.2,20.1,7.6c0.2,0.1,0.3,0.1,0.5,0.2c0.5,0.2,1,0.3,1.4,0.5l32.8,10.2
			c-0.2-0.5,0.8-0.8,1-0.8c4.5-7.1,8.2-13.9,13.1-20.3c4.6-8,9.2-15.8,13.7-23.5C209.1,123.8,209.3,112.2,204.9,100.1z"/>
		
			<linearGradient id="SVGID_2_" gradientUnits="userSpaceOnUse" x1="-182.0177" y1="511.4444" x2="-182.1242" y2="511.149" gradientTransform="matrix(79.4451 0 0 -51.0425 14629.3721 26164.1348)">
			<stop  offset="5.556000e-03" style="stop-color:#BE4503"/>
			<stop  offset="0.9889" style="stop-color:#9D3702"/>
		</linearGradient>
		<path class="st2" d="M188.1,78.7c-4.5-7.3-10.4-13.4-17.6-18.2c-7.2-4.7-13.2-7.7-17.7-8.8c-4.6-1.1-7.4-1.6-8.3-1.5
			c-10-0.2-19.2,3-27.5,9.6c1.8-0.5,3.9-0.5,6.3-0.5c21.6,7.2,41.1,17.5,58.4,30.7l0.3-1.1l14.4,12.3c-0.2-0.5-0.6-0.8-0.8-1.2
			c-5.2-8-6.5-11.7-4.3-11.2C193.8,89.5,192.6,86.1,188.1,78.7z"/>
		<path class="st3" d="M177.3,179.2l-32.8-11.3c-0.3-0.2-0.8-0.3-1.4-0.5c-0.1-0.1-0.2-0.1-0.5-0.2c-6.8-2.4-13.4-4.9-20.1-7.6
			c-12.5-5-24.6-10.4-36.6-16.3c-19.9-10.2-34.8-22.9-44.5-37.8c-1.8-2.6-3.3-5-4.3-7.1c-0.2-0.6-0.5-1.1-0.5-1.6
			c-0.3-0.6-0.7-1.1-0.9-1.7c-1.4-3.7-2.1-7.2-2.3-10.4c-0.8-5.1-0.8-9.6-0.2-13.7l0.2-1.1c0.1-0.5,0.2-0.8,0.2-1.1
			c-10.5,29-8.2,52.9,6.9,71.6c1.8,2.3,3.7,4.4,5.5,6.2l8.5-8l1.5-1c11.2,5.8,22.3,11.6,33.6,17.4l0,0l-1.6,10.3l-5.3,5
			c8.2,3.3,17,6,26.6,8C140.3,184.8,162.9,185.8,177.3,179.2z"/>
		<path class="st4" d="M113.1,163.6c-3.7-1.5-7.4-2.9-11-4.5l-1.1,0.7l-1.2,11.6l14.2-7.9C113.5,163.5,113.1,163.6,113.1,163.6z"/>
		
			<linearGradient id="SVGID_3_" gradientUnits="userSpaceOnUse" x1="-180.2885" y1="501.0821" x2="-179.29" y2="501.0821" gradientTransform="matrix(39.2151 0 0 -17.8364 7169.4385 9109.7656)">
			<stop  offset="1.000000e-02" style="stop-color:#FFFFFF"/>
			<stop  offset="0.45" style="stop-color:#ACACAC"/>
			<stop  offset="0.99" style="stop-color:#FFFFFF"/>
		</linearGradient>
		<path class="st5" d="M115,163.9c-0.3-0.2-0.7-0.3-1.1-0.6l-14.2,7.9c16.3,6,28.8,9.3,37.4,9.9l1.8-10.2c-2.1-0.5-4.3-1-6.4-1.6
			l-3.4,2.7c-0.3,0.3-0.8,0.5-1.1,0.5c-0.3,0-0.7-0.2-0.9-0.5c-0.2-0.3-0.3-0.7-0.2-1.1c0.1-0.3,0.3-0.8,0.7-1.1l1.8-1.5
			c-1.6-0.5-3-0.9-4.5-1.4l-2.9,2.4c-0.3,0.2-0.7,0.3-1.1,0.3c-0.3,0-0.8-0.2-1-0.3c-0.2-0.3-0.3-0.7-0.2-1.1
			c0.1-0.5,0.3-0.8,0.7-1.1l1.2-1.1c0.8,0.2,1.5,0.3,2.1,0.5C120.7,166.1,117.8,165,115,163.9z"/>
		<path class="st6" d="M120.7,170.1c0.5,0,0.8-0.2,1.1-0.3l2.9-2.5l0.1-0.1c-0.3-0.1-0.7-0.2-1.2-0.2c-0.7-0.2-1.5-0.3-2.1-0.5
			l-1.2,1.1c-0.3,0.2-0.6,0.7-0.7,1.1c-0.1,0.3,0,0.7,0.2,1.1C119.9,170,120.4,170.1,120.7,170.1z M129.4,168.4l-0.2,0.2l-1.7,1.5
			c-0.3,0.3-0.6,0.7-0.7,1.1c-0.1,0.5,0,0.8,0.2,1.1c0.2,0.2,0.6,0.5,0.9,0.5c0.5,0,0.8-0.2,1.1-0.5l3.4-2.7l0.2-0.2
			C131.5,169.1,130.5,168.8,129.4,168.4z"/>
		<path class="st7" d="M33.6,168.4l-0.1,0.6l34,17.5l0.2-1.1l2-10.2v-0.1l-0.2-0.1l-27.8-14.5L33.6,168.4z M41.6,168.9
			c0-0.5,0.2-0.7,0.5-1l3.5-3.3l2.5,1.4l-4.3,4c-0.2,0.2-0.6,0.3-1,0.3c-0.5,0-0.7-0.2-0.9-0.5C41.6,169.7,41.6,169.3,41.6,168.9z
			 M54.7,169.3l-4.3,4.2c-0.2,0.2-0.6,0.3-1,0.2c-0.5,0-0.7-0.2-0.9-0.5c-0.2-0.2-0.5-0.6-0.3-0.9c0-0.5,0.2-0.7,0.5-1l3.6-3.5
			L54.7,169.3z M68.1,176.3l-4.3,4c-0.2,0.2-0.6,0.3-1,0.3s-0.7-0.2-1-0.5c-0.2-0.2-0.3-0.6-0.3-1c0-0.5,0.2-0.7,0.5-0.9l3.5-3.3
			L68.1,176.3z M58.4,171.3l2.5,1.4l-4.3,4.1c-0.2,0.2-0.6,0.3-1,0.3c-0.5-0.1-0.7-0.2-1-0.5c-0.2-0.3-0.3-0.7-0.3-1
			c0-0.5,0.2-0.7,0.5-0.9L58.4,171.3z"/>
		<path class="st6" d="M41.6,168.9c0,0.5,0.1,0.8,0.3,1c0.2,0.2,0.5,0.5,0.9,0.5c0.5,0,0.8-0.1,1-0.3l4.3-4l-2.5-1.4l-3.5,3.3
			C41.7,168.2,41.6,168.4,41.6,168.9z"/>
		<path class="st6" d="M54.7,169.3l-2.5-1.4l-3.6,3.5c-0.2,0.2-0.5,0.6-0.5,1c-0.1,0.3,0.1,0.7,0.3,0.9c0.2,0.2,0.5,0.5,0.9,0.5
			c0.5,0.1,0.8,0,1-0.2L54.7,169.3z"/>
		<path class="st6" d="M68.1,176.3l-2.6-1.4l-3.5,3.3c-0.2,0.2-0.5,0.6-0.5,0.9s0.1,0.8,0.3,1c0.2,0.2,0.5,0.5,1,0.5
			c0.5,0,0.8-0.1,1-0.3L68.1,176.3z"/>
		<path class="st6" d="M58.4,171.3l-3.6,3.4c-0.2,0.2-0.5,0.5-0.5,0.9c0,0.3,0.1,0.7,0.3,1c0.2,0.2,0.5,0.3,1,0.5
			c0.5,0,0.8-0.1,1-0.3l4.3-4.1L58.4,171.3z M36,157.6l-0.2,0.2l-2.1,10.7l8.2-7.8L36,157.6z"/>
		
			<linearGradient id="SVGID_4_" gradientUnits="userSpaceOnUse" x1="641.1145" y1="-703.3815" x2="792.2373" y2="-781.268" gradientTransform="matrix(0.2257 0 0 -0.226 -107.4954 -0.6803)">
			<stop  offset="1.000000e-02" style="stop-color:#9C0000"/>
			<stop  offset="0.45" style="stop-color:#FF1010"/>
			<stop  offset="0.99" style="stop-color:#A50400"/>
		</linearGradient>
		<path class="st8" d="M35.8,157.7l0.2-0.2h-0.2V157.7z"/>
		
			<linearGradient id="SVGID_5_" gradientUnits="userSpaceOnUse" x1="-181.5394" y1="509.114" x2="-180.5772" y2="508.7092" gradientTransform="matrix(53.7528 0 0 -36.2373 9795.2451 18598.4258)">
			<stop  offset="1.000000e-02" style="stop-color:#FFFFFF"/>
			<stop  offset="0.45" style="stop-color:#B9B9B9"/>
			<stop  offset="0.99" style="stop-color:#FFFFFF"/>
		</linearGradient>
		<path class="st9" d="M36,157.6l5.9,3L69.6,175l20.2-18.9c-11.2-5.9-22.3-11.6-33.5-17.4l-1.5,0.9l-8.5,8L36,157.6z M67.6,155.4
			l0.5-0.2l8,4.2l-4.7,4.5l-8.1-4.3L67.6,155.4z M62.9,152.7l-4.8,4.5l-8-4.2l4.5-4.3l0.3-0.2L62.9,152.7z"/>
		<path class="st10" d="M67.6,155.4l-4.4,4.3l8.1,4.3l4.7-4.5l-8-4.2L67.6,155.4z"/>
		<path class="st10" d="M62.9,152.7l-8-4.2l-0.3,0.2l-4.5,4.3l8,4.2L62.9,152.7z"/>
		<path class="st11" d="M89.8,156.1L89.8,156.1L69.7,175l0,0l0,0l-2,11.2L83,171.4l5.3-5L89.8,156.1z"/>
		<path class="st12" d="M36,157.6L69.6,175l-0.3,2.7l-33.9-17L36,157.6L36,157.6z"/>
	</g>
</g>
<path class="st0" d="z"/>
</svg>
