<?xml version="1.0" standalone="no"?>
<!-- Generator: Adobe Fireworks 10, Export SVG Extension by Aaron Beall (http://fireworks.abeall.com) . Version: 0.6.1  -->
<!DOCTYPE svg PUBLIC "-//W3C//DTD SVG 1.1//EN" "http://www.w3.org/Graphics/SVG/1.1/DTD/svg11.dtd">
<svg id="Untitled-Page%201" viewBox="0 0 69 129" style="background-color:#ffffff00" version="1.1"
	xmlns="http://www.w3.org/2000/svg" xmlns:xlink="http://www.w3.org/1999/xlink" xml:space="preserve"
	x="0px" y="0px" width="69px" height="129px"
>
	<g id="Layer%201">
		<path id="CEL" d="M 5 10 L 64 10 L 64 115 L 5 115 L 5 10 ZM 68.6011 6.0001 C 68.6009 3.9537 67.75 -0.2489 62.2502 -0.2489 L 33.1521 -0.2381 C 27.575 -0.2381 17.4759 -0.624 7.75 -0.2381 C 1.75 0 0.9992 5.6173 0.9977 7.4995 C 0.9383 82.5876 -0.274 107.6535 0.0045 117.8333 C 0.1043 121.4815 3.8959 125.4925 6.3333 125.8333 C 15.5 129.3333 36.79 129.2531 52 128.1667 C 59 127.6667 65.4078 125.1772 66.3333 124.1667 C 67.3657 123.0396 68.1237 121.2361 68.2858 117.842 C 68.7295 108.546 68.6076 83.8532 68.6011 6.0001 Z" fill="#333333"/>
	</g>
</svg>