<?xml version="1.0" standalone="no"?>
<!-- Generator: Adobe Fireworks 10, Export SVG Extension by Aaron Beall (http://fireworks.abeall.com) . Version: 0.6.1  -->
<!DOCTYPE svg PUBLIC "-//W3C//DTD SVG 1.1//EN" "http://www.w3.org/Graphics/SVG/1.1/DTD/svg11.dtd">
<svg id="Untitled-Page%201" viewBox="0 0 295 241" style="background-color:#ffffff00" version="1.1"
	xmlns="http://www.w3.org/2000/svg" xmlns:xlink="http://www.w3.org/1999/xlink" xml:space="preserve"
	x="0px" y="0px" width="295px" height="241px"
>
	<g id="Layer%201">
		<path id="pc" d="M 278 192.8 L 17.8334 192.8 L 0.3334 208.6667 L 117 208.8666 L 117 222.6381 C 112.4069 227.2286 99.251 229.5238 99.251 236.4095 C 99.251 241 102.5475 241 102.5475 241 L 192.7073 241 C 192.8223 239.4016 195.6492 237.997 195.2538 236.7511 C 192.3508 227.6043 178.4675 227.007 177.6666 221 C 177 216 177.3334 218.6666 177.3334 209 C 195.6667 209 229.1666 209 295 209 L 278 192.8 ZM 278.384 16.0667 L 278.385 193 L 294.46 208.75 L 294.4601 16.7714 C 294.4601 1 294.3334 0 278.0874 0 L 19.5742 0 C 0.6667 0 0.498 1.3333 0.498 17.4762 L 0.5 209 L 18.87 192 L 18.8707 16.0667 L 278.384 16.0667 Z" fill="#333333"/>
	</g>
</svg>