<?xml version="1.0" standalone="no"?>
<!-- Generator: Adobe Fireworks 10, Export SVG Extension by Aaron Beall (http://fireworks.abeall.com) . Version: 0.6.1  -->
<!DOCTYPE svg PUBLIC "-//W3C//DTD SVG 1.1//EN" "http://www.w3.org/Graphics/SVG/1.1/DTD/svg11.dtd">
<svg id="Untitled-Page%201" viewBox="0 0 274 160" style="background-color:#ffffff00" version="1.1"
	xmlns="http://www.w3.org/2000/svg" xmlns:xlink="http://www.w3.org/1999/xlink" xml:space="preserve"
	x="0px" y="0px" width="274px" height="160px"
>
	<g id="Layer%201">
		<g id="nOTE">
			<path d="M 28.6666 0.3333 C 22.4812 0.3333 21.4525 3.6263 21.4525 8.9238 L 21.4525 128.8666 C 21.4525 139.6667 22 142.6381 30.3422 142.6381 L 235.75 142.6381 C 235.75 142.6381 243.0342 141.75 243.0342 134 L 243.0342 10.25 C 243.0342 10.25 243.6667 0.3333 234.75 0.3333 C 234.75 0.3333 36 0.3333 28.6666 0.3333 ZM 228.1445 11.8095 L 228.1445 131.1619 L 37.5286 131.1619 L 37.5286 11.8095 L 228.1445 11.8095 Z" fill="#333333"/>
			<path d="M 0 147 L 274 147 L 251.5 160 L 25 160 L 0 147 Z" fill="#333333"/>
		</g>
	</g>
</svg>